<?xml version="1.0" encoding="UTF-8"?>
<svg version="1.1" xmlns="http://www.w3.org/2000/svg" width="500" height="120">
<path d="M0 0 C165 0 330 0 500 0 C500 39.6 500 79.2 500 120 C335 120 170 120 0 120 C0 80.4 0 40.8 0 0 Z " fill="#FCFDFD" transform="translate(0,0)"/>
<path d="M0 0 C1.0828125 0.00322266 2.165625 0.00644531 3.28125 0.00976562 C4.333125 -0.00634766 5.385 -0.02246094 6.46875 -0.0390625 C14.56382414 -0.04407183 22.37613121 0.48466663 28.78125 5.82226562 C33.43449021 11.63881589 33.55515969 16.02816676 32.78125 23.32226562 C30.45679306 28.23938608 27.00615815 31.05756387 22.78125 34.32226562 C23.626875 35.14726563 24.4725 35.97226563 25.34375 36.82226562 C28.65163271 40.65909377 30.63079413 44.85157969 32.65625 49.44726562 C32.9663501 50.14013672 33.2764502 50.83300781 33.59594727 51.546875 C35.16534937 55.2358337 36.28268924 58.29555658 35.78125 62.32226562 C34.78125 63.32226562 34.78125 63.32226562 32.27734375 63.41992188 C31.26800781 63.40832031 30.25867188 63.39671875 29.21875 63.38476562 C28.20683594 63.37574219 27.19492188 63.36671875 26.15234375 63.35742188 C24.97865234 63.34001953 24.97865234 63.34001953 23.78125 63.32226562 C23.47832031 62.57203125 23.17539063 61.82179687 22.86328125 61.04882812 C20.75666232 55.90219604 18.60773443 50.7825683 16.21875 45.75976562 C15.84621094 44.97472656 15.47367188 44.1896875 15.08984375 43.38085938 C13.52577256 40.9203653 12.33039314 39.7558863 9.78125 38.32226562 C6.31625 37.82726562 6.31625 37.82726562 2.78125 37.32226562 C2.78125 45.57226562 2.78125 53.82226562 2.78125 62.32226562 C0.41511544 63.50533291 -1.08655736 63.4558117 -3.71875 63.44726562 C-4.5128125 63.44984375 -5.306875 63.45242187 -6.125 63.45507812 C-8.21875 63.32226562 -8.21875 63.32226562 -10.21875 62.32226562 C-10.26504055 54.53380213 -10.30060242 46.74537071 -10.32237434 38.95680428 C-10.33282249 35.3404569 -10.34700032 31.72420346 -10.36962891 28.10791016 C-10.3913208 24.61957752 -10.40331085 21.13133538 -10.40850449 17.64294052 C-10.41401169 15.66086591 -10.42963034 13.67882784 -10.44534302 11.69680786 C-10.44549408 10.49571381 -10.44564514 9.29461975 -10.44580078 8.05712891 C-10.450242 6.99567657 -10.45468323 5.93422424 -10.45925903 4.84060669 C-9.88059826 -1.21848044 -4.79263968 0.0329494 0 0 Z " fill="#81C345" transform="translate(123.21875,51.677734375)"/>
<path d="M0 0 C4.26331297 2.89837878 7.34651202 6.45359855 8.9765625 11.34375 C9.27993164 14.56752712 9.30015423 17.79486565 9.3515625 21.03125 C9.40763672 22.34125977 9.40763672 22.34125977 9.46484375 23.67773438 C9.55205054 30.16495094 8.10696026 34.31771288 3.9765625 39.34375 C1.4140625 41.71875 1.4140625 41.71875 -1.0234375 43.34375 C-1.55324219 43.69824219 -2.08304688 44.05273438 -2.62890625 44.41796875 C-9.31363213 47.00243863 -18.98035132 46.46084394 -25.80859375 44.57421875 C-30.35412902 42.09563208 -33.10949913 38.16720883 -35.171875 33.48828125 C-37.35110958 25.44110769 -37.79758971 15.65152229 -33.8984375 8.09375 C-26.12247098 -3.23068575 -12.26934025 -6.24620958 0 0 Z " fill="#7AC143" transform="translate(198.0234375,69.65625)"/>
<path d="M0 0 C3.33933376 2.02643331 5.57303817 4.10926605 6.87280273 7.87207031 C7.51390438 11.33921636 7.4344908 14.78462823 7.41015625 18.296875 C7.4087413 19.06807678 7.40732635 19.83927856 7.40586853 20.6338501 C7.40028534 23.08927338 7.38773595 25.54460442 7.375 28 C7.36998283 29.66796743 7.3654203 31.33593629 7.36132812 33.00390625 C7.35032141 37.08597287 7.33306836 41.16797081 7.3125 45.25 C4.0125 45.25 0.7125 45.25 -2.6875 45.25 C-3.0175 44.26 -3.3475 43.27 -3.6875 42.25 C-4.574375 42.91 -5.46125 43.57 -6.375 44.25 C-11.77711369 47.30863056 -17.68102376 47.27623212 -23.6875 46.25 C-27.28650603 44.29557289 -29.85229478 41.92041044 -31.6875 38.25 C-32.86486029 27.95650714 -32.86486029 27.95650714 -29.625 23.75 C-21.90176362 17.17703287 -14.31328382 17.9155133 -4.6875 18.25 C-5.05122953 13.4064539 -5.05122953 13.4064539 -7.3125 9.3125 C-11.18987362 7.57788548 -14.71520108 7.56381996 -18.7421875 8.96484375 C-20.10318954 9.52208421 -21.46262311 10.08317383 -22.8203125 10.6484375 C-25.35501676 11.4650577 -27.20160837 11.10452525 -29.6875 10.25 C-30 7.5 -30 7.5 -29.6875 4.25 C-22.63163287 -3.22091813 -9.0782801 -4.27807634 0 0 Z " fill="#0684C8" transform="translate(386.6875,69.75)"/>
<path d="M0 0 C2.95615594 2.5652026 5.32341923 5.48809467 6.04142761 9.42095947 C6.16084843 11.65922646 6.159984 13.8645977 6.109375 16.10546875 C6.10608688 16.91586105 6.10279877 17.72625336 6.09941101 18.561203 C6.08903595 20.26313385 6.06916416 21.96503064 6.0402832 23.66674805 C5.99593867 26.28258521 5.97880326 28.89750415 5.96679688 31.51367188 C5.95338313 33.16928421 5.93846302 34.82488518 5.921875 36.48046875 C5.91448807 37.26581497 5.90710114 38.05116119 5.89949036 38.86030579 C5.80193887 44.34259238 5.80193887 44.34259238 4.68359375 45.4609375 C2.01300524 45.60208911 -0.64072863 45.50340857 -3.31640625 45.4609375 C-3.97640625 44.1409375 -4.63640625 42.8209375 -5.31640625 41.4609375 C-5.91453125 41.9353125 -6.51265625 42.4096875 -7.12890625 42.8984375 C-12.41419189 46.67364153 -19.09963708 46.14065796 -25.31640625 45.4609375 C-28.87988701 43.87643775 -30.70225304 41.49383154 -32.69140625 38.1484375 C-33.77757382 33.47791694 -33.93500075 29.36090631 -32.44140625 24.7734375 C-28.05194151 19.99666705 -23.00409122 17.68375076 -16.546875 17.1484375 C-13.1219188 17.1484375 -9.73367733 17.23935652 -6.31640625 17.4609375 C-6.57090225 15.97887255 -6.84552387 14.50025135 -7.12890625 13.0234375 C-7.27972656 12.19972656 -7.43054688 11.37601563 -7.5859375 10.52734375 C-7.82699219 9.84542969 -8.06804687 9.16351563 -8.31640625 8.4609375 C-12.82109756 6.95937373 -17.10279101 6.52349902 -21.51171875 8.390625 C-22.87778053 9.12154367 -24.22759087 9.88410552 -25.5546875 10.68359375 C-27.31640625 11.4609375 -27.31640625 11.4609375 -30.31640625 10.4609375 C-30.64640625 8.1509375 -30.97640625 5.8409375 -31.31640625 3.4609375 C-30.07084533 2.64164864 -28.8197399 1.83078564 -27.56640625 1.0234375 C-26.52226562 0.34474609 -26.52226562 0.34474609 -25.45703125 -0.34765625 C-18.02052356 -4.48658845 -7.39007939 -3.85139995 0 0 Z " fill="#07A651" transform="translate(283.31640625,69.5390625)"/>
<path d="M0 0 C2.00720923 0.28674418 4.0085944 0.61866701 6 1 C6.33 2.65 6.66 4.3 7 6 C5.02 6.99 5.02 6.99 3 8 C3 8.66 3 9.32 3 10 C4.03125 10.061875 5.0625 10.12375 6.125 10.1875 C10.98213866 11.2059323 12.52665259 12.52665259 16 16 C18.70094145 20.43659799 18.92812671 24.94944384 18 30 C16.33521615 32.73431069 14.37489723 34.86541975 12 37 C10.7666788 34.53335759 10.99898368 33.05545514 11.125 30.3125 C11.17502653 25.37416696 10.41920633 22.30081126 8 18 C4.3558226 15.5705484 2.28758728 15.83820425 -2 16 C-2 16.33 -2 16.66 -2 17 C0.31 17 2.62 17 5 17 C5 17.66 5 18.32 5 19 C1.98865897 19.59197302 -0.92529183 20.05892298 -4 20 C-6.125 18.0625 -6.125 18.0625 -8 16 C-11.45728358 15.24988633 -11.45728358 15.24988633 -15 16 C-17.63016161 18.1727422 -19.47336894 19.94673788 -21 23 C-21.12207871 24.78859511 -21.17548448 26.58228381 -21.1875 28.375 C-21.20167969 29.33148438 -21.21585937 30.28796875 -21.23046875 31.2734375 C-21.18249698 33.9489511 -21.18249698 33.9489511 -20.01171875 35.87890625 C-18.52143417 39.00332528 -18.70160425 42.16518134 -18.625 45.5625 C-18.34043024 52.65976686 -16.86745095 58.46460138 -14 65 C-13.67 65.99 -13.34 66.98 -13 68 C-12.34 68 -11.68 68 -11 68 C-11.05220703 66.48019531 -11.05220703 66.48019531 -11.10546875 64.9296875 C-11.13362595 63.5781417 -11.16092403 62.22657781 -11.1875 60.875 C-11.22520508 59.87726563 -11.22520508 59.87726563 -11.26367188 58.859375 C-11.33389025 54.08452584 -10.28271777 51.13405581 -8 47 C-7.8684413 44.12607709 -7.8684413 44.12607709 -8.5625 41.9375 C-9 40 -9 40 -8 38 C-6.02 38 -4.04 38 -2 38 C-1.20046862 41.28696233 -0.90341064 42.71023192 -2 46 C-1.52949219 46.87914062 -1.05898438 47.75828125 -0.57421875 48.6640625 C1.37663774 52.79813556 1.34571096 55.88829947 1.1875 60.375 C1.16719727 61.47908203 1.16719727 61.47908203 1.14648438 62.60546875 C1.11144869 64.40396743 1.05765288 66.20208422 1 68 C8.76436837 60.74791985 8.47821504 51.42691287 8.88671875 41.40234375 C8.92410156 40.27957031 8.96148437 39.15679687 9 38 C14.47246311 38.558727 14.47246311 38.558727 16.86328125 40.55859375 C17.34152344 41.17863281 17.81976563 41.79867187 18.3125 42.4375 C19.04919922 43.36369141 19.04919922 43.36369141 19.80078125 44.30859375 C22.45179687 48.04764836 22.42795459 51.55088722 22 56 C20.23299233 62.0286144 17.15547771 65.60159326 12 69 C7.95444026 70.96202897 4.6785689 71.24602119 0.203125 71.23046875 C-1.08464844 71.22853516 -2.37242187 71.22660156 -3.69921875 71.22460938 C-4.36356934 71.21840576 -5.02791992 71.21220215 -5.71240234 71.20581055 C-7.75761229 71.18743159 -9.80237193 71.18530193 -11.84765625 71.18554688 C-21.85973388 71.14026612 -21.85973388 71.14026612 -23 70 C-23.10428875 68.16972828 -23.13854374 66.33542545 -23.14526367 64.50219727 C-23.15164352 63.32750381 -23.15802338 62.15281036 -23.16459656 60.94252014 C-23.16570938 59.66340256 -23.1668222 58.38428497 -23.16796875 57.06640625 C-23.17129715 55.76299789 -23.17462555 54.45958954 -23.17805481 53.11668396 C-23.184052 50.35341565 -23.18589412 47.59017865 -23.18530273 44.8269043 C-23.18520109 41.28131527 -23.19885231 37.73592643 -23.21607494 34.19038486 C-23.22985013 30.81572201 -23.22928323 27.44109691 -23.23046875 24.06640625 C-23.23765427 22.7893129 -23.24483978 21.51221954 -23.25224304 20.19642639 C-23.24916641 19.01858078 -23.24608978 17.84073517 -23.24291992 16.62719727 C-23.24434494 15.58652603 -23.24576996 14.5458548 -23.24723816 13.47364807 C-23 11 -23 11 -21 9 C-18.84521484 8.68115234 -18.84521484 8.68115234 -16.2109375 8.5859375 C-15.26992188 8.54726563 -14.32890625 8.50859375 -13.359375 8.46875 C-12.37453125 8.4378125 -11.3896875 8.406875 -10.375 8.375 C-9.38242187 8.33632813 -8.38984375 8.29765625 -7.3671875 8.2578125 C-4.91164615 8.1633686 -2.4561159 8.07780125 0 8 C-0.66 7.34 -1.32 6.68 -2 6 C-1.44444444 1.44444444 -1.44444444 1.44444444 0 0 Z " fill="#0C589E" transform="translate(328,44)"/>
<path d="M0 0 C0.61875 0.66 1.2375 1.32 1.875 2 C4.45350437 4.42682764 5.31020816 4.27143172 8.75 4.25 C10.16767057 4.18597617 11.58506449 4.10884119 13 4 C13 3.34 13 2.68 13 2 C10.69 2.33 8.38 2.66 6 3 C6 2.01 6 1.02 6 0 C10.33050371 -0.42455919 12.31030775 -0.53642731 15.8125 2.1875 C20.26181232 7.90804441 20.5158276 12.92236546 20 20 C19.505 21.485 19.505 21.485 19 23 C18.34 23 17.68 23 17 23 C17.04640625 24.11117187 17.0928125 25.22234375 17.140625 26.3671875 C17.43666967 36.57269652 16.81391561 44.27912658 11 53 C10.34 53 9.68 53 9 53 C8.96261719 51.92621094 8.92523438 50.85242188 8.88671875 49.74609375 C8.82100888 48.3098638 8.75456332 46.87366738 8.6875 45.4375 C8.66494141 44.73302734 8.64238281 44.02855469 8.61914062 43.30273438 C8.4304798 39.58097091 7.98926338 36.59758694 6.4375 33.1875 C4.7945222 29.54437532 4.98144459 27.79643379 6 24 C4.02 23.67 2.04 23.34 0 23 C-0.20086443 26.71599191 -0.1519437 27.77208445 2 31 C1.2884375 31.8971875 1.2884375 31.8971875 0.5625 32.8125 C-2.30386933 36.82541706 -2.29163098 40.9317504 -2.5625 45.6875 C-2.60568359 46.38939453 -2.64886719 47.09128906 -2.69335938 47.81445312 C-2.7991736 49.54275206 -2.90006581 51.2713511 -3 53 C-3.66 53 -4.32 53 -5 53 C-5.81752303 51.41925436 -6.62881997 49.83528777 -7.4375 48.25 C-7.88996094 47.36828125 -8.34242188 46.4865625 -8.80859375 45.578125 C-11.31685983 40.15040169 -11.29877605 34.73539607 -11.51757812 28.84375 C-11.7070147 25.01212721 -12.19608904 22.35113895 -14 19 C-14.6949651 13.65038492 -14.65184874 9.28121994 -12.1875 4.4375 C-8.2983738 0.10390224 -5.72758646 -0.60290384 0 0 Z " fill="#F9FAFC" transform="translate(320,59)"/>
<path d="M0 0 C0.9075 0.00257812 1.815 0.00515625 2.75 0.0078125 C4.11125 0.00394531 4.11125 0.00394531 5.5 0 C7.75 0.1328125 7.75 0.1328125 8.75 1.1328125 C8.86360293 4.21192909 8.91419105 7.26776716 8.91796875 10.34765625 C8.92296135 11.73676964 8.92296135 11.73676964 8.92805481 13.15394592 C8.93312808 15.11686708 8.93546301 17.0797969 8.93530273 19.04272461 C8.93748817 22.05401761 8.95563674 25.06494384 8.97460938 28.07617188 C8.97754336 29.97916541 8.97952812 31.88216069 8.98046875 33.78515625 C8.98765427 34.69039536 8.99483978 35.59563446 9.00224304 36.52830505 C8.99916641 37.36579788 8.99608978 38.20329071 8.99291992 39.06616211 C8.99434494 39.80483017 8.99576996 40.54349823 8.99723816 41.30455017 C8.75 43.1328125 8.75 43.1328125 6.75 45.1328125 C6.75 44.1428125 6.75 43.1528125 6.75 42.1328125 C5.63625 42.7103125 4.5225 43.2878125 3.375 43.8828125 C2.74851563 44.20765625 2.12203125 44.5325 1.4765625 44.8671875 C-0.58361431 46.37736235 -1.27970428 47.80018238 -2.25 50.1328125 C-2.25386719 48.70388672 -2.25386719 48.70388672 -2.2578125 47.24609375 C-2.27812838 40.43088745 -2.27812838 40.43088745 -4.37109375 34.08984375 C-7.06292548 31.60227025 -9.89256795 30.81230971 -13.4375 30.5703125 C-17.15288479 30.75931731 -17.15288479 30.75931731 -18.96484375 32.67578125 C-20.7479313 36.08478451 -20.68697946 39.25461199 -20.625 43.0078125 C-20.63660156 43.70261719 -20.64820313 44.39742187 -20.66015625 45.11328125 C-20.63337331 49.85386105 -19.6559004 53.07205997 -17.25 57.1328125 C-17.971875 56.9059375 -18.69375 56.6790625 -19.4375 56.4453125 C-23.00584692 56.04882951 -24.38871099 57.08903463 -27.25 59.1328125 C-26.940625 59.7515625 -26.63125 60.3703125 -26.3125 61.0078125 C-25.625 62.3828125 -24.9375 63.7578125 -24.25 65.1328125 C-28.07612703 63.62969117 -29.95091967 61.50479699 -32.25 58.1328125 C-35.63044074 49.82658668 -35.69359307 38.99712253 -32.6875 30.5078125 C-30.54196926 25.9638849 -27.49301934 22.80069705 -23.25 20.1328125 C-18.13047753 18.42630501 -13.85332171 18.46728273 -8.9375 20.5078125 C-7.01367186 21.67105742 -5.12058776 22.885754 -3.25 24.1328125 C-3.25785522 23.0955603 -3.25785522 23.0955603 -3.26586914 22.03735352 C-3.286575 18.92334898 -3.29963963 15.80935889 -3.3125 12.6953125 C-3.32087891 11.60669922 -3.32925781 10.51808594 -3.33789062 9.39648438 C-3.34272461 7.84477539 -3.34272461 7.84477539 -3.34765625 6.26171875 C-3.35551147 4.82421265 -3.35551147 4.82421265 -3.36352539 3.35766602 C-3.20922332 0.33367726 -3.02201977 0.17838311 0 0 Z " fill="#05A750" transform="translate(38.25,47.8671875)"/>
<path d="M0 0 C1 1 1 1 1.0625 4.5625 C1.041875 5.696875 1.02125 6.83125 1 8 C-3 8 -3 8 -4.953125 7.50390625 C-7.28652627 6.92946204 -9.35063672 6.90221525 -11.75 6.9375 C-12.94882812 6.95103516 -12.94882812 6.95103516 -14.171875 6.96484375 C-14.77515625 6.97644531 -15.3784375 6.98804687 -16 7 C-16.33 8.65 -16.66 10.3 -17 12 C-12.42227347 14.85474459 -7.64413747 17.06763801 -2.7421875 19.3046875 C0.37978228 21.23479417 1.51177657 22.67160842 3 26 C3.73125774 30.18680901 3.46457617 33.89968802 1.8125 37.8125 C-1.04372102 41.2596633 -3.73375684 43.57791895 -8 45 C-15.55998661 45.49386847 -22.30635475 45.82494014 -29 42 C-29 39.03 -29 36.06 -29 33 C-24.25 33.875 -24.25 33.875 -22 35 C-20.1478437 35.09584979 -18.29212847 35.12983606 -16.4375 35.125 C-14.95056641 35.12886719 -14.95056641 35.12886719 -13.43359375 35.1328125 C-11.05187652 35.27438431 -11.05187652 35.27438431 -10 34 C-9.95936168 32.33382885 -9.957279 30.66611905 -10 29 C-10.95261719 28.56429687 -11.90523438 28.12859375 -12.88671875 27.6796875 C-14.15401194 27.07889665 -15.42091878 26.47729037 -16.6875 25.875 C-17.31333984 25.59140625 -17.93917969 25.3078125 -18.58398438 25.015625 C-23.29734678 22.74531431 -26.04180073 20.34866372 -29 16 C-30.16705682 11.78164378 -29.9432034 7.7544227 -27.85546875 3.87109375 C-20.84346648 -4.99104105 -9.42630083 -5.0139898 0 0 Z " fill="#0672B7" transform="translate(431,71)"/>
<path d="M0 0 C0 2.97 0 5.94 0 9 C-1.155 8.67 -2.31 8.34 -3.5 8 C-7.7907297 6.92158131 -11.58579973 6.76767367 -16 7 C-17.29633621 8.06645115 -17.29633621 8.06645115 -17.0625 10.5625 C-17.041875 11.366875 -17.02125 12.17125 -17 13 C-16.443125 13.23074219 -15.88625 13.46148437 -15.3125 13.69921875 C-2.31111111 19.25555556 -2.31111111 19.25555556 2 24.375 C3.89094563 29.33873227 3.48569888 32.80599025 1.5 37.6875 C-1.17468016 41.78252755 -4.27741442 43.79223309 -9 45 C-15.56784309 45.58628204 -21.97795107 46.01637264 -28 43 C-30 41 -30 41 -30.1953125 39.0546875 C-30.09765625 36.02734375 -30.09765625 36.02734375 -30 33 C-25.39726027 33.76712329 -25.39726027 33.76712329 -23.1875 35.0625 C-19.70810742 36.55366825 -16.77423715 36.2396341 -13 36 C-12.01 35.34 -11.02 34.68 -10 34 C-9.7886547 31.6087705 -9.7886547 31.6087705 -11 29 C-13.14692852 27.75063193 -15.34177453 26.87603507 -17.6484375 25.95703125 C-23.40513198 23.61419047 -27.20876196 20.58247608 -30 15 C-30.86685626 10.57726396 -30.36181685 7.71023308 -28.3125 3.6875 C-20.65130464 -5.21605136 -9.9287993 -4.33256697 0 0 Z " fill="#05A64F" transform="translate(243,70)"/>
<path d="M0 0 C2.375 1.625 2.375 1.625 4.375 3.625 C4.64491906 6.31339385 4.46237357 8.91641936 4.375 11.625 C2.6875 12.3125 2.6875 12.3125 0.375 12.625 C-0.73875 11.9134375 -0.73875 11.9134375 -1.875 11.1875 C-5.84687812 8.93075107 -8.08023166 9.04788656 -12.625 9.625 C-15.80917962 12.52427934 -16.57338754 14.15859386 -17.05078125 18.47265625 C-17.03365889 19.87800721 -16.99542095 21.28323875 -16.9375 22.6875 C-16.92299805 23.74807617 -16.92299805 23.74807617 -16.90820312 24.83007812 C-16.88843386 29.84409152 -16.88843386 29.84409152 -15.625 34.625 C-11.05314787 36.14895071 -6.8281799 36.48158438 -2.32421875 34.73046875 C-0.38219864 33.75428457 1.50800697 32.73725117 3.375 31.625 C4.95422406 33.20422406 4.582659 34.81943874 4.625 37 C4.65078125 37.79148438 4.6765625 38.58296875 4.703125 39.3984375 C4.375 41.625 4.375 41.625 3.234375 43.2890625 C-2.83757974 47.65168545 -10.49481779 47.43564419 -17.625 46.625 C-22.81360447 44.99216441 -25.83690537 41.90511143 -28.625 37.3125 C-31.96756823 29.74356584 -31.84011573 20.77852024 -29.9609375 12.80859375 C-27.56749771 6.6584941 -23.29522478 2.88598235 -17.7734375 -0.515625 C-12.24223097 -2.72810761 -5.44332211 -2.06470839 0 0 Z " fill="#064D96" transform="translate(491.625,69.375)"/>
<path d="M0 0 C4.17789719 0.30512732 6.82720247 1.83549143 9.84375 4.6875 C12.30198852 8.34627361 12.24695951 12.38942666 12.1875 16.6875 C13.095 16.006875 14.0025 15.32625 14.9375 14.625 C18.1875 12.6875 18.1875 12.6875 20.390625 13.06640625 C21.28007813 13.37384766 21.28007813 13.37384766 22.1875 13.6875 C22.21637236 17.49998426 22.23425492 21.3124407 22.25 25.125 C22.25837891 26.21361328 22.26675781 27.30222656 22.27539062 28.42382812 C22.27861328 29.45830078 22.28183594 30.49277344 22.28515625 31.55859375 C22.29039307 32.51693115 22.29562988 33.47526855 22.30102539 34.46264648 C22.1875 36.6875 22.1875 36.6875 21.1875 37.6875 C19.375 37.8203125 19.375 37.8203125 17.1875 37.8125 C16.465625 37.81507812 15.74375 37.81765625 15 37.8203125 C13.1875 37.6875 13.1875 37.6875 12.1875 36.6875 C12.14686168 35.02132885 12.144779 33.35361905 12.1875 31.6875 C11.68863281 32.120625 11.18976562 32.55375 10.67578125 33 C4.76842269 37.58164973 0.3155992 38.30162208 -7.08984375 38.09375 C-10.51466819 37.58272885 -11.28409223 36.2941904 -13.5 33.75 C-13.933125 33.069375 -14.36625 32.38875 -14.8125 31.6875 C-13.8125 28.6875 -13.8125 28.6875 -11.4375 27 C-8.8125 25.6875 -8.8125 25.6875 -5.8125 25.6875 C-6.13476562 25.19121094 -6.45703125 24.69492188 -6.7890625 24.18359375 C-8.20407023 20.73248712 -8.18080639 17.42144489 -8.1875 13.75 C-8.21199219 13.04681641 -8.23648437 12.34363281 -8.26171875 11.61914062 C-8.28210653 7.99351418 -7.91110762 5.85105487 -6.02734375 2.7265625 C-3.8125 0.6875 -3.8125 0.6875 0 0 Z " fill="#3AB549" transform="translate(24.8125,77.3125)"/>
<path d="M0 0 C2 2 2 2 2.1953125 4.3828125 C2.17210938 5.28773437 2.14890625 6.19265625 2.125 7.125 C2.10695313 8.03507812 2.08890625 8.94515625 2.0703125 9.8828125 C2.04710938 10.58148438 2.02390625 11.28015625 2 12 C1.33613281 12.00257812 0.67226562 12.00515625 -0.01171875 12.0078125 C-0.89472656 12.04648438 -1.77773437 12.08515625 -2.6875 12.125 C-3.99267578 12.15980469 -3.99267578 12.15980469 -5.32421875 12.1953125 C-8.3387534 13.10187329 -10.11401971 14.27341528 -12.0246582 16.79785156 C-14.2875245 21.90700149 -13.74447604 27.82444732 -13.75 33.3125 C-13.78298199 35.87114092 -13.81925155 38.42974235 -13.859375 40.98828125 C-13.86420898 42.11790283 -13.86904297 43.24752441 -13.87402344 44.41137695 C-14 47 -14 47 -15 48 C-16.47648876 48.09823996 -17.95775417 48.12973519 -19.4375 48.125 C-20.24058594 48.12757812 -21.04367188 48.13015625 -21.87109375 48.1328125 C-24 48 -24 48 -26 47 C-26.02527062 40.60962769 -26.04283317 34.21926817 -26.05493164 27.82885742 C-26.05997308 25.65307127 -26.06680607 23.47728853 -26.07543945 21.30151367 C-26.08751338 18.18146933 -26.09323005 15.06146962 -26.09765625 11.94140625 C-26.10281754 10.96224747 -26.10797882 9.98308868 -26.11329651 8.97425842 C-26.11337204 8.07340012 -26.11344757 7.17254181 -26.11352539 6.24438477 C-26.115746 5.44718521 -26.11796661 4.64998566 -26.12025452 3.82862854 C-26 2 -26 2 -25 1 C-23.48071962 0.92820036 -21.95832518 0.91607993 -20.4375 0.9375 C-19.61121094 0.94652344 -18.78492187 0.95554687 -17.93359375 0.96484375 C-17.29550781 0.97644531 -16.65742187 0.98804687 -16 1 C-15.34 2.65 -14.68 4.3 -14 6 C-13.36384766 5.3503125 -13.36384766 5.3503125 -12.71484375 4.6875 C-8.53763585 0.72144767 -6.016424 -0.94375278 0 0 Z " fill="#31B44B" transform="translate(83,67)"/>
<path d="M0 0 C3.63 0 7.26 0 11 0 C11 15.18 11 30.36 11 46 C7.04 46 3.08 46 -1 46 C-1.024644 39.60962203 -1.04283317 33.21927148 -1.05493164 26.82885742 C-1.05997308 24.65307127 -1.06680607 22.47728853 -1.07543945 20.30151367 C-1.08751338 17.18146933 -1.09323005 14.06146962 -1.09765625 10.94140625 C-1.10281754 9.96224747 -1.10797882 8.98308868 -1.11329651 7.97425842 C-1.11337204 7.07340012 -1.11344757 6.17254181 -1.11352539 5.24438477 C-1.115746 4.44718521 -1.11796661 3.64998566 -1.12025452 2.82862854 C-1 1 -1 1 0 0 Z " fill="#0A65AA" transform="translate(442,69)"/>
<path d="M0 0 C2.00720923 0.28674418 4.0085944 0.61866701 6 1 C6.33 2.65 6.66 4.3 7 6 C5.02 6.99 5.02 6.99 3 8 C3 8.66 3 9.32 3 10 C4.03125 10.061875 5.0625 10.12375 6.125 10.1875 C10.98213866 11.2059323 12.52665259 12.52665259 16 16 C18.70094145 20.43659799 18.92812671 24.94944384 18 30 C16.33521615 32.73431069 14.37489723 34.86541975 12 37 C10.7666788 34.53335759 10.99898368 33.05545514 11.125 30.3125 C11.17502653 25.37416696 10.41920633 22.30081126 8 18 C4.3558226 15.5705484 2.28758728 15.83820425 -2 16 C-2 16.33 -2 16.66 -2 17 C0.31 17 2.62 17 5 17 C5 17.66 5 18.32 5 19 C1.98865897 19.59197302 -0.92529183 20.05892298 -4 20 C-6.125 18.0625 -6.125 18.0625 -8 16 C-11.45728358 15.24988633 -11.45728358 15.24988633 -15 16 C-17.63016161 18.1727422 -19.47336894 19.94673788 -21 23 C-21.12207871 24.78859511 -21.17548448 26.58228381 -21.1875 28.375 C-21.20167969 29.33148438 -21.21585937 30.28796875 -21.23046875 31.2734375 C-21.18262268 33.95336479 -21.18262268 33.95336479 -19.99780273 35.89990234 C-18.8804675 38.25158271 -18.76774668 39.74226761 -18.8046875 42.328125 C-18.81113281 43.12734375 -18.81757813 43.9265625 -18.82421875 44.75 C-18.84097656 45.575 -18.85773438 46.4 -18.875 47.25 C-18.88402344 48.09046875 -18.89304687 48.9309375 -18.90234375 49.796875 C-18.92584183 51.86470604 -18.96171092 53.93238995 -19 56 C-19.66 55.34 -20.32 54.68 -21 54 C-21.99 54.495 -21.99 54.495 -23 55 C-23.05059881 48.77038023 -23.08569062 42.5408132 -23.10986328 36.31103516 C-23.11993751 34.1905723 -23.13359733 32.07012339 -23.15087891 29.94970703 C-23.17506489 26.90654057 -23.18646869 23.86355734 -23.1953125 20.8203125 C-23.20563507 19.86818878 -23.21595764 18.91606506 -23.22659302 17.93508911 C-23.22674408 17.05432709 -23.22689514 16.17356506 -23.22705078 15.26611328 C-23.231492 14.48889923 -23.23593323 13.71168518 -23.24050903 12.91091919 C-23 11 -23 11 -21 9 C-18.84521484 8.68115234 -18.84521484 8.68115234 -16.2109375 8.5859375 C-15.26992188 8.54726563 -14.32890625 8.50859375 -13.359375 8.46875 C-12.37453125 8.4378125 -11.3896875 8.406875 -10.375 8.375 C-9.38242187 8.33632813 -8.38984375 8.29765625 -7.3671875 8.2578125 C-4.91164615 8.1633686 -2.4561159 8.07780125 0 8 C-0.66 7.34 -1.32 6.68 -2 6 C-1.44444444 1.44444444 -1.44444444 1.44444444 0 0 Z " fill="#16277C" transform="translate(328,44)"/>
<path d="M0 0 C3.45762282 0.0723818 4.62104844 0.33485218 7.6875 2.1875 C11.87679358 6.76953985 11.15430636 12.85169338 11.046875 18.74609375 C10.70875855 22.1603349 10.46439937 23.67404987 8.3125 26.25 C4.25348286 29.53587102 1.92997372 29.81927743 -3.3125 29.375 C-6.49735251 27.534863 -7.95128472 26.08022983 -9.625 22.8125 C-10.81143954 16.88030229 -11.93446974 10.12319659 -8.4375 4.8125 C-4.30506506 0.07235403 -4.30506506 0.07235403 0 0 Z " fill="#FAFDFA" transform="translate(184.3125,76.625)"/>
<path d="M0 0 C0.33 0 0.66 0 1 0 C1.915077 17.89483921 1.915077 17.89483921 -2.5703125 23.55859375 C-4.60588909 25.61085539 -6.59122123 27.39414749 -9 29 C-9.52980469 29.35449219 -10.05960938 29.70898438 -10.60546875 30.07421875 C-17.26385707 32.64850592 -27.29939225 32.31327636 -33.9609375 29.94921875 C-36.125 28.625 -36.125 28.625 -39 26 C-39 25.34 -39 24.68 -39 24 C-38.34 24 -37.68 24 -37 24 C-37 23.34 -37 22.68 -37 22 C-35.02 21.01 -33.04 20.02 -31 19 C-31.33 17.68 -31.66 16.36 -32 15 C-31.57589844 15.433125 -31.15179688 15.86625 -30.71484375 16.3125 C-27.56838903 19.29990317 -25.74431857 20.87166921 -21.375 21.625 C-17.41443596 20.89156221 -15.75642198 19.91393181 -13 17 C-10.72289233 12.9012062 -10.46755704 8.59764425 -10 4 C-9.34 5.32 -8.68 6.64 -8 8 C-3.06809363 5.81620269 -3.06809363 5.81620269 -0.0625 1.75 C-0.041875 1.1725 -0.02125 0.595 0 0 Z " fill="#08AC4A" transform="translate(206,84)"/>
<path d="M0 0 C1.05638672 -0.020625 2.11277344 -0.04125 3.20117188 -0.0625 C11.02899349 -0.10108446 19.79283027 0.12277884 25.6875 5.9375 C26.615625 7.0821875 26.615625 7.0821875 27.5625 8.25 C27.2325 8.91 26.9025 9.57 26.5625 10.25 C25.82 9.404375 25.0775 8.55875 24.3125 7.6875 C21.92509144 5.00965949 21.92509144 5.00965949 19.5625 5.3125 C18.9025 5.621875 18.2425 5.93125 17.5625 6.25 C16.655 6.600625 15.7475 6.95125 14.8125 7.3125 C14.07 7.621875 13.3275 7.93125 12.5625 8.25 C12.5625 8.91 12.5625 9.57 12.5625 10.25 C13.5215625 10.62125 13.5215625 10.62125 14.5 11 C16.5625 12.25 16.5625 12.25 17.3125 14.375 C17.43625 15.303125 17.43625 15.303125 17.5625 16.25 C16.840625 15.445625 16.11875 14.64125 15.375 13.8125 C10.6139495 9.73159957 4.5385267 10.43293959 -1.4375 10.25 C-1.4375 15.86 -1.4375 21.47 -1.4375 27.25 C-1.7675 27.25 -2.0975 27.25 -2.4375 27.25 C-2.7675 24.61 -3.0975 21.97 -3.4375 19.25 C-4.200625 19.745 -4.96375 20.24 -5.75 20.75 C-8.4375 22.25 -8.4375 22.25 -11.4375 22.25 C-11.4375 34.13 -11.4375 46.01 -11.4375 58.25 C-11.7675 58.25 -12.0975 58.25 -12.4375 58.25 C-12.46062883 50.83540058 -12.47841785 43.42080889 -12.48931217 36.00618076 C-12.49453982 32.56359652 -12.50163531 29.12103688 -12.51293945 25.6784668 C-12.52584235 21.72444957 -12.53072918 17.77044244 -12.53515625 13.81640625 C-12.54031754 12.57476212 -12.54547882 11.33311798 -12.55079651 10.05384827 C-12.55087204 8.91274094 -12.55094757 7.77163361 -12.55102539 6.59594727 C-12.553246 5.585569 -12.55546661 4.57519073 -12.55775452 3.53419495 C-12.26153225 -2.09244953 -4.29577592 0.020299 0 0 Z " fill="#60BA3C" transform="translate(126.4375,51.75)"/>
<path d="M0 0 C0.13277344 0.89203125 0.26554687 1.7840625 0.40234375 2.703125 C0.57894531 3.87359375 0.75554687 5.0440625 0.9375 6.25 C1.11152344 7.41015625 1.28554688 8.5703125 1.46484375 9.765625 C1.64144531 10.83296875 1.81804687 11.9003125 2 13 C2.12503906 13.77859375 2.25007813 14.5571875 2.37890625 15.359375 C2.58386719 15.90078125 2.78882813 16.4421875 3 17 C7.57185213 18.52395071 11.7968201 18.85658438 16.30078125 17.10546875 C18.24280136 16.12928457 20.13300697 15.11225117 22 14 C23.57922406 15.57922406 23.207659 17.19443874 23.25 19.375 C23.27578125 20.16648437 23.3015625 20.95796875 23.328125 21.7734375 C23 24 23 24 21.859375 25.6640625 C15.79597102 30.02054183 8.12178855 29.82609269 1 29 C-3.8934083 27.34317672 -6.96992015 24.62816887 -9.5625 20.1875 C-11.0087102 16.69958129 -11.57558244 13.7644468 -10.88671875 10.03125 C-9.15683317 6.06851651 -4.62548169 0 0 0 Z " fill="#1A2C7F" transform="translate(473,87)"/>
<path d="M0 0 C3.45285635 1.04445833 5.99049027 2.86059136 8.1953125 5.6640625 C8.85347544 8.65206045 9.10891013 10.63785988 9.0078125 13.6015625 C8.99371338 14.31505859 8.97961426 15.02855469 8.96508789 15.76367188 C8.72513088 19.94674536 8.2271981 22.75870046 5.1328125 25.6640625 C1.50117504 27.95501433 -1.53631312 28.4028196 -5.8046875 27.6640625 C-8.42061903 25.83291043 -8.77458205 24.75437884 -9.8046875 21.6640625 C-9.97866956 19.02295773 -10.08147765 16.43159138 -10.1171875 13.7890625 C-10.14619141 13.08136719 -10.17519531 12.37367187 -10.20507812 11.64453125 C-10.24923003 7.99690437 -9.91400757 5.84666305 -8.02734375 2.6953125 C-5.40019786 0.29440589 -3.52107049 0.07127673 0 0 Z " fill="#FBFDFC" transform="translate(26.8046875,77.3359375)"/>
<path d="M0 0 C1 1 1 1 1.0625 4.5625 C1.041875 5.696875 1.02125 6.83125 1 8 C-3 8 -3 8 -4.953125 7.50390625 C-7.28652627 6.92946204 -9.35063672 6.90221525 -11.75 6.9375 C-12.94882812 6.95103516 -12.94882812 6.95103516 -14.171875 6.96484375 C-14.77515625 6.97644531 -15.3784375 6.98804687 -16 7 C-16.33 8.65 -16.66 10.3 -17 12 C-13.55291141 14.09506252 -13.55291141 14.09506252 -10 16 C-10.33 16.66 -10.66 17.32 -11 18 C-13.31 17.34 -15.62 16.68 -18 16 C-19.32 17.32 -20.64 18.64 -22 20 C-21.67 20.99 -21.34 21.98 -21 23 C-24.86624652 21.48111744 -26.90549839 19.59057418 -29 16 C-29.86305367 11.68473163 -29.96953033 7.8128889 -27.859375 3.8671875 C-20.8268475 -4.97899183 -9.43715345 -5.01976247 0 0 Z " fill="#0799DC" transform="translate(431,71)"/>
<path d="M0 0 C5.47246311 0.558727 5.47246311 0.558727 7.86328125 2.55859375 C8.34152344 3.17863281 8.81976563 3.79867187 9.3125 4.4375 C9.80363281 5.05496094 10.29476563 5.67242187 10.80078125 6.30859375 C13.45179687 10.04764836 13.42795459 13.55088722 13 18 C11.20128062 24.13680729 8.12230345 27.44505326 3 31 C-0.76562176 33.02057753 -3.75358231 33.1975078 -8 33 C-8 32.01 -8 31.02 -8 30 C-7.401875 29.46375 -6.80375 28.9275 -6.1875 28.375 C0.66195063 20.9384536 -0.31649288 9.5056999 0 0 Z " fill="#0862A8" transform="translate(337,82)"/>
<path d="M0 0 C0 2.97 0 5.94 0 9 C-1.155 8.67 -2.31 8.34 -3.5 8 C-7.77500587 6.91598066 -11.60361453 6.84298623 -16 7 C-16.2475 7.78375 -16.495 8.5675 -16.75 9.375 C-18.22139994 12.46493987 -19.07318455 12.53659227 -22 14 C-23.28254644 16.53770003 -23.28254644 16.53770003 -24 19 C-24.99 18.67 -25.98 18.34 -27 18 C-27 17.34 -27 16.68 -27 16 C-27.99 15.67 -28.98 15.34 -30 15 C-30.41813284 8.93707386 -30.13274522 5.80292012 -26 1 C-17.7911056 -4.95144844 -8.85289316 -3.86308065 0 0 Z " fill="#3EB74F" transform="translate(243,70)"/>
<path d="M0 0 C0.33 0 0.66 0 1 0 C1.33 6.93 1.66 13.86 2 21 C4.64 19.35 7.28 17.7 10 16 C10.33 16 10.66 16 11 16 C12.42109822 39.06746925 12.42109822 39.06746925 12 45 C11 46 11 46 9.00390625 46.1328125 C8.19824219 46.13023438 7.39257812 46.12765625 6.5625 46.125 C5.75941406 46.12757812 4.95632812 46.13015625 4.12890625 46.1328125 C2 46 2 46 0 45 C0 30.15 0 15.3 0 0 Z " fill="#61BB45" transform="translate(57,69)"/>
<path d="M0 0 C2.5 1.375 2.5 1.375 4 4 C4.9033534 9.10179588 4.82482914 12.75025888 1.9375 17.125 C-1.78610663 19.50177019 -3.65810577 19.77533825 -8 19 C-11.07504636 16.97177793 -12.66581629 15.50246824 -13.48046875 11.83984375 C-13.73957582 7.64511033 -13.33216044 5.50862067 -11 1.9375 C-6.83994881 -0.74919973 -4.89701312 -0.6995733 0 0 Z " fill="#828386" transform="translate(190,9)"/>
<path d="M0 0 C2.5 1.375 2.5 1.375 4 4 C4.9033534 9.10179588 4.82482914 12.75025888 1.9375 17.125 C-1.78610663 19.50177019 -3.65810577 19.77533825 -8 19 C-11.07504636 16.97177793 -12.66581629 15.50246824 -13.48046875 11.83984375 C-13.73957582 7.64511033 -13.33216044 5.50862067 -11 1.9375 C-6.83994881 -0.74919973 -4.89701312 -0.6995733 0 0 Z " fill="#818286" transform="translate(292,9)"/>
<path d="M0 0 C2.97717008 1.98478006 4.62826444 3.36831119 5.44140625 6.9375 C5.66684799 10.77728188 5.23190202 12.63668683 3.125 15.9375 C0.36482531 18.61649308 -0.49114152 18.95288347 -4.375 19.3125 C-8 19 -8 19 -10.4375 17.6875 C-12.97584705 13.32154307 -12.71593224 8.91457656 -12 4 C-9.35815028 -0.73331408 -5.0326375 -1.12611493 0 0 Z " fill="#7C7D81" transform="translate(220,9)"/>
<path d="M0 0 C2.5 1.375 2.5 1.375 4 4 C4.9033534 9.10179588 4.82482914 12.75025888 1.9375 17.125 C-1.78610663 19.50177019 -3.65810577 19.77533825 -8 19 C-11.07504636 16.97177793 -12.66581629 15.50246824 -13.48046875 11.83984375 C-13.73957582 7.64511033 -13.33216044 5.50862067 -11 1.9375 C-6.83994881 -0.74919973 -4.89701312 -0.6995733 0 0 Z " fill="#848589" transform="translate(118,9)"/>
<path d="M0 0 C10.95652174 -0.48160535 10.95652174 -0.48160535 15.25 1.5 C17.25512669 4.3644667 17.73572005 6.52713749 17.4609375 10.02734375 C17 12 17 12 15.25 15 C10.19695332 18.10956718 5.86323381 17.3221557 0 17 C0 11.39 0 5.78 0 0 Z " fill="#FCFDFC" transform="translate(126,62)"/>
<path d="M0 0 C3.10086912 -0.42560949 5.91688775 -0.61041484 9 0 C10.78200815 1.65472185 11.8367886 3.25881848 13.02734375 5.37109375 C13.90824479 7.17856477 13.90824479 7.17856477 16 8 C16.268125 7.236875 16.53625 6.47375 16.8125 5.6875 C18.67491927 1.47255113 18.67491927 1.47255113 21 0 C23.71821651 -0.24759992 26.25948688 -0.13477933 29 0 C28.14936454 6.37976596 24.81694927 10.85357007 20 15 C16.97781027 16.25147945 15.01788878 16.47502505 11.765625 16.20703125 C5.94837539 13.66814689 2.82993375 7.4362678 0 2 C0 1.34 0 0.68 0 0 Z " fill="#0483C8" transform="translate(403,48)"/>
<path d="M0 0 C9 0 9 0 12.5625 2 C15.28597557 5.35196993 15.82268562 6.86983657 15.43359375 11.0625 C14.65900159 14.52374062 13.87533748 15.86021397 11 18 C7.23166653 18.41749882 3.81315669 18.22697361 0 18 C0 12.06 0 6.12 0 0 Z " fill="#7F8084" transform="translate(315,9)"/>
<path d="M0 0 C3.30226386 0 5.386111 0.47719616 7.921875 2.63671875 C11.45560973 6.46979878 14.12103583 9.55338781 14 15 C13.5625 17.625 13.5625 17.625 12 20 C10.00783807 21.17929248 8.01245752 22.11982463 5.875 23.0078125 C3.6649732 23.98688764 3.6649732 23.98688764 2 27 C1.96261719 26.19175781 1.92523438 25.38351563 1.88671875 24.55078125 C1.82097656 23.48214844 1.75523437 22.41351563 1.6875 21.3125 C1.60048828 19.72888672 1.60048828 19.72888672 1.51171875 18.11328125 C0.95847487 14.74736235 -0.12522596 12.81216107 -2 10 C-2.6875 7.6875 -2.6875 7.6875 -3 6 C-1.35 4.68 0.3 3.36 2 2 C1.34 1.34 0.68 0.68 0 0 Z " fill="#60BB42" transform="translate(193,69)"/>
<path d="M0 0 C1.98 0 3.96 0 6 0 C7.65 3.63 9.3 7.26 11 11 C11.639375 9.370625 12.27875 7.74125 12.9375 6.0625 C14.875 1.125 14.875 1.125 16 0 C17.65 0 19.3 0 21 0 C21 5.94 21 11.88 21 18 C20.01 18 19.02 18 18 18 C17.505 11.565 17.505 11.565 17 5 C16.75765625 5.92683594 16.5153125 6.85367187 16.265625 7.80859375 C15.76289063 9.60490234 15.76289063 9.60490234 15.25 11.4375 C14.92515625 12.63246094 14.6003125 13.82742187 14.265625 15.05859375 C13 18 13 18 10.859375 18.91015625 C10.24578125 18.93980469 9.6321875 18.96945313 9 19 C8.319375 17.205625 8.319375 17.205625 7.625 15.375 C7.36976563 14.70210937 7.11453125 14.02921875 6.8515625 13.3359375 C5.84573417 10.57683042 4.92867446 7.78602338 4 5 C3.67 9.62 3.34 14.24 3 19 C2.01 19 1.02 19 0 19 C0 12.73 0 6.46 0 0 Z " fill="#7E7F83" transform="translate(125,9)"/>
<path d="M0 0 C1.44750506 4.34251518 1.04148595 8.66848957 0.9609375 13.1953125 C0.92532635 16.41218683 0.97436183 18.92308549 2 22 C-0.31 22.66 -2.62 23.32 -5 24 C-5 24.66 -5 25.32 -5 26 C-6.8125 25.9375 -6.8125 25.9375 -9 25 C-12.54997154 19.1679039 -12.32633017 13.68372526 -12 7 C-11.24203125 6.87496094 -10.4840625 6.74992187 -9.703125 6.62109375 C-6.18076995 5.81176651 -3.87219528 4.15414646 -1 2 C-0.67 1.34 -0.34 0.68 0 0 Z " fill="#62BC45" transform="translate(174,82)"/>
<path d="M0 0 C0.66 0 1.32 0 2 0 C2.84442881 1.89091736 3.67511587 3.78797515 4.5 5.6875 C4.9640625 6.74324219 5.428125 7.79898438 5.90625 8.88671875 C6.95377362 11.8684199 7.31492604 13.87885803 7 17 C6 18 6 18 3.49609375 18.09765625 C2.48675781 18.08605469 1.47742188 18.07445313 0.4375 18.0625 C-0.57441406 18.05347656 -1.58632812 18.04445313 -2.62890625 18.03515625 C-3.80259766 18.01775391 -3.80259766 18.01775391 -5 18 C-5.81832722 16.10667466 -6.62942268 14.21022267 -7.4375 12.3125 C-7.88996094 11.25675781 -8.34242188 10.20101562 -8.80859375 9.11328125 C-9.85447455 6.38027471 -10.53520748 3.87957663 -11 1 C-10.34 2.32 -9.68 3.64 -9 5 C-7.686298 4.3566152 -6.37407102 3.71021785 -5.0625 3.0625 C-3.96615234 2.52302734 -3.96615234 2.52302734 -2.84765625 1.97265625 C-1.03750973 1.13628173 -1.03750973 1.13628173 0 0 Z " fill="#61BB42" transform="translate(152,97)"/>
<path d="M0 0 C2.97 0 5.94 0 9 0 C9.66 1.65 10.32 3.3 11 5 C11.66 4.154375 12.32 3.30875 13 2.4375 C16 0 16 0 18.11328125 -0.109375 C20.09211284 0.15774969 22.04999475 0.57033783 24 1 C21.54862034 3.86777839 18.95168403 5.70686713 15.70703125 7.55078125 C14.5149707 8.22850586 14.5149707 8.22850586 13.29882812 8.91992188 C11.63729363 9.85053782 9.96786901 10.76720065 8.29101562 11.66992188 C3.15948811 14.52918417 3.15948811 14.52918417 0.94921875 19.85546875 C0.96597656 20.89316406 0.98273437 21.93085937 1 23 C0.67 23 0.34 23 0 23 C0 15.41 0 7.82 0 0 Z " fill="#24B24A" transform="translate(58,68)"/>
<path d="M0 0 C0.99 0.33 1.98 0.66 3 1 C3.02685412 3.31243792 3.04632841 5.6249627 3.0625 7.9375 C3.07410156 9.22527344 3.08570312 10.51304688 3.09765625 11.83984375 C3 15 3 15 2 16 C0.1875 16.1328125 0.1875 16.1328125 -2 16.125 C-2.721875 16.12757812 -3.44375 16.13015625 -4.1875 16.1328125 C-6 16 -6 16 -7 15 C-7.04063832 13.33382885 -7.042721 11.66611905 -7 10 C-7.56847656 10.44472656 -8.13695312 10.88945313 -8.72265625 11.34765625 C-14.95429789 15.91475255 -14.95429789 15.91475255 -18.15625 16.17578125 C-20.0625 15.875 -20.0625 15.875 -23 15 C-19.52408618 12.09171248 -16.00386438 9.73191805 -12.0625 7.5 C-8.75068886 5.61218628 -5.52582487 3.73476774 -2.4375 1.5 C-1.633125 1.005 -0.82875 0.51 0 0 Z " fill="#46B645" transform="translate(44,99)"/>
<path d="M0 0 C9 0 9 0 12 2 C12.2542814 4.92423611 12.20514066 7.30252177 11.375 10.125 C10.86741631 12.66291847 11.78170889 13.77841032 13 16 C13 16.99 13 17.98 13 19 C11.1875 18.875 11.1875 18.875 9 18 C7.9349985 16.03384339 6.93166826 14.03273074 6 12 C5.34 11.67 4.68 11.34 4 11 C4 13.31 4 15.62 4 18 C2.68 18 1.36 18 0 18 C0 12.06 0 6.12 0 0 Z " fill="#848589" transform="translate(299,9)"/>
<path d="M0 0 C1.65 0 3.3 0 5 0 C6.98 3.63 8.96 7.26 11 11 C11.33 7.37 11.66 3.74 12 0 C12.99 0 13.98 0 15 0 C15 5.94 15 11.88 15 18 C13.35 18 11.7 18 10 18 C8.02 14.37 6.04 10.74 4 7 C3.67 10.63 3.34 14.26 3 18 C2.01 18 1.02 18 0 18 C0 12.06 0 6.12 0 0 Z " fill="#7C7D81" transform="translate(340,9)"/>
<path d="M0 0 C1.65 0 3.3 0 5 0 C6.00605593 2.60197202 7.00502525 5.20629362 8 7.8125 C8.28617188 8.55048828 8.57234375 9.28847656 8.8671875 10.04882812 C9.13789063 10.76103516 9.40859375 11.47324219 9.6875 12.20703125 C10.06455078 13.18893433 10.06455078 13.18893433 10.44921875 14.19067383 C11 16 11 16 11 19 C9.68 18.67 8.36 18.34 7 18 C6.67 16.68 6.34 15.36 6 14 C3.69 14 1.38 14 -1 14 C-1.66 15.65 -2.32 17.3 -3 19 C-3.99 19 -4.98 19 -6 19 C-4.3186083 12.51292846 -2.46937673 6.2322365 0 0 Z " fill="#7F8084" transform="translate(154,9)"/>
<path d="M0 0 C1.65 0 3.3 0 5 0 C6.98 5.94 8.96 11.88 11 18 C9.68 18 8.36 18 7 18 C6.67 16.68 6.34 15.36 6 14 C2.56206661 14.18129815 2.56206661 14.18129815 -1 15 C-2.51294288 16.93597032 -2.51294288 16.93597032 -3 19 C-3.99 19 -4.98 19 -6 19 C-4.70024676 12.28460827 -2.70071112 6.27980887 0 0 Z " fill="#77787C" transform="translate(363,9)"/>
<path d="M0 0 C2.38671875 0.0078125 2.38671875 0.0078125 5 1 C6.23264809 3.38007607 7.04420428 5.35095962 7.8125 7.875 C8.02841797 8.51308594 8.24433594 9.15117187 8.46679688 9.80859375 C9.40188875 12.65246048 10 14.98995706 10 18 C8.68 18 7.36 18 6 18 C5.67 17.01 5.34 16.02 5 15 C2.69 14.67 0.38 14.34 -2 14 C-2.33 15.65 -2.66 17.3 -3 19 C-3.99 19 -4.98 19 -6 19 C-5.48405058 13.19556907 -4.24367342 4.24367342 0 0 Z " fill="#838488" transform="translate(411,9)"/>
<path d="M0 0 C1.32 0 2.64 0 4 0 C4.33 1.98 4.66 3.96 5 6 C5.5775 5.01 6.155 4.02 6.75 3 C7.4925 2.01 8.235 1.02 9 0 C10.32 0 11.64 0 13 0 C11.79618552 2.49361571 10.54571278 4.68143083 9 7 C9.3778829 10.58988752 10.58424553 13.69657291 12 17 C12.66 17 13.32 17 14 17 C14.33 15.35 14.66 13.7 15 12 C16.5625 13.8125 16.5625 13.8125 18 16 C17.67 16.99 17.34 17.98 17 19 C13.8125 19.4375 13.8125 19.4375 10 19 C7.88841619 16.91454966 6.43260857 14.58793807 5 12 C4.67 13.98 4.34 15.96 4 18 C2.68 18 1.36 18 0 18 C0 12.06 0 6.12 0 0 Z " fill="#8C8D91" transform="translate(241,9)"/>
<path d="M0 0 C1.51400391 0.01740234 1.51400391 0.01740234 3.05859375 0.03515625 C4.07050781 0.04417969 5.08242188 0.05320313 6.125 0.0625 C7.29869141 0.07990234 7.29869141 0.07990234 8.49609375 0.09765625 C7.56766565 6.19046565 2.92822514 11.1107618 -1.50390625 15.09765625 C-4.97657445 16.05329276 -6.8817366 15.73009857 -10.50390625 15.09765625 C-9.8441838 11.55989459 -8.37955197 8.96258932 -6.50390625 5.91015625 C-5.96765625 5.02972656 -5.43140625 4.14929687 -4.87890625 3.2421875 C-2.87194381 0.11201029 -2.87194381 0.11201029 0 0 Z " fill="#075FA5" transform="translate(485.50390625,47.90234375)"/>
<path d="M0 0 C0.48120301 7.21804511 0.48120301 7.21804511 -1.5 10.4375 C-5.14330845 12.71456778 -7.68779374 12.93155228 -12 13 C-14 11.9375 -14 11.9375 -15 10 C-15.39831203 6.81350376 -15.60548083 4.8779472 -13.75 2.1875 C-9.52832196 -0.6772101 -4.92230553 -0.08203843 0 0 Z " fill="#F4FAFC" transform="translate(382,95)"/>
<path d="M0 0 C0.98484375 0.02707031 1.9696875 0.05414063 2.984375 0.08203125 C3.73203125 0.11683594 4.4796875 0.15164062 5.25 0.1875 C5.76752022 5.36270216 5.76752022 5.36270216 5.25 8.1875 C2.21503902 11.07793903 0.20467341 12.05646639 -3.9375 12.625 C-6.75 12.1875 -6.75 12.1875 -8.625 11.0625 C-10.29663625 8.27643958 -10.21376624 6.36761138 -9.75 3.1875 C-6.64700657 0.06997264 -4.29682067 -0.15345788 0 0 Z " fill="#F8FCFA" transform="translate(271.75,94.8125)"/>
<path d="M0 0 C1.19109375 0.00773437 1.19109375 0.00773437 2.40625 0.015625 C3.2003125 0.01046875 3.994375 0.0053125 4.8125 0 C6.90625 0.265625 6.90625 0.265625 8.90625 2.265625 C9.13671875 4.140625 9.13671875 4.140625 9.09375 6.265625 C9.08408203 7.3175 9.08408203 7.3175 9.07421875 8.390625 C8.90625 10.265625 8.90625 10.265625 7.90625 12.265625 C6.09382948 12.29249779 4.28129767 12.31196215 2.46875 12.328125 C1.45941406 12.33972656 0.45007813 12.35132813 -0.58984375 12.36328125 C-3.09375 12.265625 -3.09375 12.265625 -4.09375 11.265625 C-4.26171875 9.26953125 -4.26171875 9.26953125 -4.28125 6.828125 C-4.29542969 6.02503906 -4.30960937 5.22195312 -4.32421875 4.39453125 C-3.99805445 1.38165761 -3.00716957 0.38150659 0 0 Z " fill="#0494D8" transform="translate(445.09375,49.734375)"/>
<path d="M0 0 C1.12588014 0.95729916 2.2506715 1.91587895 3.375 2.875 C4.00148437 3.40867187 4.62796875 3.94234375 5.2734375 4.4921875 C6.55836651 5.61432007 7.79371975 6.79371975 9 8 C9.99 8.66 10.98 9.32 12 10 C6.16846386 15.9523076 6.16846386 15.9523076 1.9375 16.125 C-1.46349869 14.82248986 -4.13717531 13.24936226 -7 11 C-7 10.34 -7 9.68 -7 9 C-6.34 9 -5.68 9 -5 9 C-5 8.34 -5 7.68 -5 7 C-3.02 6.01 -1.04 5.02 1 4 C0.67 2.68 0.34 1.36 0 0 Z " fill="#1EB14B" transform="translate(174,99)"/>
<path d="M0 0 C3.52389926 2.34926618 3.80477749 3.523612 5.125 7.4375 C5.45757812 8.40558594 5.79015625 9.37367187 6.1328125 10.37109375 C6.41898437 11.23863281 6.70515625 12.10617188 7 13 C7.33 13.99 7.66 14.98 8 16 C8.66 16.33 9.32 16.66 10 17 C10.33 17.66 10.66 18.32 11 19 C9.02090602 19.02686553 7.04171029 19.04633375 5.0625 19.0625 C3.96035156 19.07410156 2.85820312 19.08570312 1.72265625 19.09765625 C-1 19 -1 19 -2 18 C-2.12682623 15.52836314 -2.18520251 13.09709389 -2.1875 10.625 C-2.19974609 9.93921875 -2.21199219 9.2534375 -2.22460938 8.546875 C-2.23552331 4.80703203 -2.1266842 3.1900263 0 0 Z " fill="#064A95" transform="translate(307,96)"/>
<path d="M0 0 C0.33 0 0.66 0 1 0 C1 5.61 1 11.22 1 17 C0.01 16.01 -0.98 15.02 -2 14 C-2.68707031 14.44472656 -3.37414062 14.88945313 -4.08203125 15.34765625 C-5.43361328 16.19650391 -5.43361328 16.19650391 -6.8125 17.0625 C-7.70582031 17.63097656 -8.59914062 18.19945313 -9.51953125 18.78515625 C-12 20 -12 20 -15 19 C-14.52949219 18.45859375 -14.05898437 17.9171875 -13.57421875 17.359375 C-11.73777329 14.60698528 -11.31616146 12.50442793 -10.8125 9.25 C-10.65394531 8.26515625 -10.49539062 7.2803125 -10.33203125 6.265625 C-10.22246094 5.51796875 -10.11289063 4.7703125 -10 4 C-9.34 5.32 -8.68 6.64 -8 8 C-3.06809363 5.81620269 -3.06809363 5.81620269 -0.0625 1.75 C-0.041875 1.1725 -0.02125 0.595 0 0 Z " fill="#19AF49" transform="translate(206,84)"/>
<path d="M0 0 C0.66 0.33 1.32 0.66 2 1 C2 1.99 2 2.98 2 4 C0.865625 3.979375 -0.26875 3.95875 -1.4375 3.9375 C-4.81575674 3.58422523 -4.81575674 3.58422523 -6 5 C-6.07179964 6.51928038 -6.08392007 8.04167482 -6.0625 9.5625 C-6.05347656 10.38878906 -6.04445313 11.21507812 -6.03515625 12.06640625 C-6.02355469 12.70449219 -6.01195312 13.34257812 -6 14 C-3.36 14 -0.72 14 2 14 C1.125 17.875 1.125 17.875 0 19 C-3.71112269 19.35010591 -6.14980006 19.47959996 -9.4375 17.625 C-11.87578333 13.52868401 -11.72717991 9.64045738 -11 5 C-8.32935289 -0.34129421 -5.73453669 -0.63717074 0 0 Z " fill="#848589" transform="translate(386,9)"/>
<path d="M0 0 C0.33 1.32 0.66 2.64 1 4 C-1.97 3.505 -1.97 3.505 -5 3 C-3.87560303 5.96431929 -3.25293875 6.86750828 -0.375 8.375 C0.40875 8.91125 1.1925 9.4475 2 10 C2.53083754 13.18502524 2.54125059 15.04485189 0.9375 17.875 C-2.00227124 19.58196395 -4.67870803 19.18799766 -8 19 C-8.33 17.68 -8.66 16.36 -9 15 C-7.02 15 -5.04 15 -3 15 C-3 14.01 -3 13.02 -3 12 C-5.94236782 9.78831775 -5.94236782 9.78831775 -9 8 C-8.74438677 5.6568787 -8.40729228 3.32156597 -8 1 C-5.29120665 -0.35439668 -2.99066732 -0.06501451 0 0 Z " fill="#7E7F83" transform="translate(88,9)"/>
<path d="M0 0 C0.33 1.32 0.66 2.64 1 4 C-1.97 3.505 -1.97 3.505 -5 3 C-3.87560303 5.96431929 -3.25293875 6.86750828 -0.375 8.375 C0.40875 8.91125 1.1925 9.4475 2 10 C2.53083754 13.18502524 2.54125059 15.04485189 0.9375 17.875 C-2.00227124 19.58196395 -4.67870803 19.18799766 -8 19 C-8.33 17.68 -8.66 16.36 -9 15 C-7.02 15 -5.04 15 -3 15 C-3 14.01 -3 13.02 -3 12 C-5.94236782 9.78831775 -5.94236782 9.78831775 -9 8 C-8.74438677 5.6568787 -8.40729228 3.32156597 -8 1 C-5.29120665 -0.35439668 -2.99066732 -0.06501451 0 0 Z " fill="#7E7F83" transform="translate(236,9)"/>
<path d="M0 0 C1.89212737 0.22179785 3.78884472 0.40614015 5.6875 0.5625 C6.68136719 0.64628906 7.67523437 0.73007813 8.69921875 0.81640625 C9.83810547 0.90728516 9.83810547 0.90728516 11 1 C8.52338709 2.91896497 6.07275999 4.58357545 3.3125 6.0625 C-0.03565915 7.61609514 -0.03565915 7.61609514 -1 10 C1.31 10 3.62 10 6 10 C6 10.33 6 10.66 6 11 C4.37536158 11.05395478 2.75021459 11.09277195 1.125 11.125 C-0.23238281 11.15980469 -0.23238281 11.15980469 -1.6171875 11.1953125 C-4.85162568 10.93019462 -5.61957011 9.43678987 -7.6875 7.0625 C-8.120625 6.381875 -8.55375 5.70125 -9 5 C-8 2 -8 2 -5.625 0.25 C-3 -1 -3 -1 0 0 Z " fill="#2EB347" transform="translate(19,104)"/>
<path d="M0 0 C2.32421875 0.0703125 2.32421875 0.0703125 5 1 C6.23264809 3.38007607 7.04420428 5.35095962 7.8125 7.875 C8.02841797 8.51308594 8.24433594 9.15117187 8.46679688 9.80859375 C9.40188875 12.65246048 10 14.98995706 10 18 C8.68 18 7.36 18 6 18 C5.67 17.01 5.34 16.02 5 15 C2.69 14.67 0.38 14.34 -2 14 C-1.67 13.34 -1.34 12.68 -1 12 C0.98 12 2.96 12 5 12 C4.67 11.401875 4.34 10.80375 4 10.1875 C3 8 3 8 3 5 C2.34 5 1.68 5 1 5 C0.67 6.65 0.34 8.3 0 10 C-0.99 10.33 -1.98 10.66 -3 11 C-2.25 3.375 -2.25 3.375 0 0 Z " fill="#797B7F" transform="translate(261,9)"/>
<path d="M0 0 C0.33 0 0.66 0 1 0 C1.33 6.93 1.66 13.86 2 21 C4.64 19.35 7.28 17.7 10 16 C10.33 17.32 10.66 18.64 11 20 C10.4225 20.21269531 9.845 20.42539063 9.25 20.64453125 C6.31660108 22.16725048 4.891667 23.24131895 3 26 C1.90080425 32.23396972 2.5526259 38.72433551 3 45 C2.01 45 1.02 45 0 45 C0 30.15 0 15.3 0 0 Z " fill="#60C05D" transform="translate(57,69)"/>
<path d="M0 0 C4.62 0 9.24 0 14 0 C14 0.99 14 1.98 14 3 C12.35 3 10.7 3 9 3 C9 8.28 9 13.56 9 19 C7.68 19 6.36 19 5 19 C5 13.72 5 8.44 5 3 C3.35 3 1.7 3 0 3 C0 2.01 0 1.02 0 0 Z " fill="#848589" transform="translate(163,9)"/>
<path d="M0 0 C2.91658994 2.54266815 4.76990847 4.26370711 5.9375 8 C6.00998182 11.47912725 5.92257494 13.0776861 4 16 C2.00783807 17.17929248 0.01245752 18.11982463 -2.125 19.0078125 C-4.3350268 19.98688764 -4.3350268 19.98688764 -6 23 C-6 18.71 -6 14.42 -6 10 C-5.67 10.66 -5.34 11.32 -5 12 C-2.69 10.68 -0.38 9.36 2 8 C1.47731534 5.23723823 0.89130413 2.6739124 0 0 Z " fill="#4BB849" transform="translate(201,73)"/>
<path d="M0 0 C2.5 0.25 2.5 0.25 4.5 2.25 C4.765625 4.34375 4.765625 4.34375 4.75 6.75 C4.75515625 7.5440625 4.7603125 8.338125 4.765625 9.15625 C4.5 11.25 4.5 11.25 2.5 13.25 C0 13.5625 0 13.5625 -2.5 13.25 C-5.21232939 9.18150591 -4.80699887 7.08523216 -4.5 2.25 C-2.5 0.25 -2.5 0.25 0 0 Z " fill="#F7F7F8" transform="translate(185.5,11.75)"/>
<path d="M0 0 C2.5 0.25 2.5 0.25 4.5 2.25 C4.765625 4.34375 4.765625 4.34375 4.75 6.75 C4.75515625 7.5440625 4.7603125 8.338125 4.765625 9.15625 C4.5 11.25 4.5 11.25 2.5 13.25 C0 13.5625 0 13.5625 -2.5 13.25 C-5.21232939 9.18150591 -4.80699887 7.08523216 -4.5 2.25 C-2.5 0.25 -2.5 0.25 0 0 Z " fill="#F8F8F8" transform="translate(113.5,11.75)"/>
<path d="M0 0 C5.75 1.75 5.75 1.75 8 4 C8.26991906 6.68839385 8.08737357 9.29141936 8 12 C6.375 12.75 6.375 12.75 4 13 C1 11.1875 1 11.1875 -2 9 C-3.3191582 8.30570621 -4.64649406 7.62469505 -6 7 C-5.195625 6.401875 -4.39125 5.80375 -3.5625 5.1875 C-0.77672016 3.19052724 -0.77672016 3.19052724 0 0 Z " fill="#1A3484" transform="translate(488,69)"/>
<path d="M0 0 C2.5 0.25 2.5 0.25 4.5 2.25 C5.05800294 9.280837 5.05800294 9.280837 3.3125 12.3125 C0.73719907 13.6445522 -0.79717396 13.10352401 -3.5 12.25 C-5.08894072 10.66105928 -4.66998411 9.00198576 -4.6875 6.8125 C-4.70167969 6.00941406 -4.71585937 5.20632812 -4.73046875 4.37890625 C-4.37351059 1.08158086 -3.22200121 0.32220012 0 0 Z " fill="#F9F9F9" transform="translate(287.5,11.75)"/>
<path d="M0 0 C0.33 0 0.66 0 1 0 C1 7.92 1 15.84 1 24 C-2.63 24 -6.26 24 -10 24 C-10 19.38 -10 14.76 -10 10 C-9.67 10 -9.34 10 -9 10 C-9 13.3 -9 16.6 -9 20 C-2.96767965 16.01902375 -2.96767965 16.01902375 -0.24609375 9.640625 C-0.02385256 6.40930868 0.07789003 3.23730423 0 0 Z " fill="#082A7F" transform="translate(452,91)"/>
<path d="M0 0 C4.62 0 9.24 0 14 0 C14 0.99 14 1.98 14 3 C12.35 3 10.7 3 9 3 C9 7.95 9 12.9 9 18 C7.68 18 6.36 18 5 18 C5 13.05 5 8.1 5 3 C3.35 3 1.7 3 0 3 C0 2.01 0 1.02 0 0 Z " fill="#838488" transform="translate(91,9)"/>
<path d="M0 0 C2.5 0.25 2.5 0.25 4.5 2.25 C5.05800294 9.280837 5.05800294 9.280837 3.3125 12.3125 C0.73719907 13.6445522 -0.79717396 13.10352401 -3.5 12.25 C-5.08894072 10.66105928 -4.66998411 9.00198576 -4.6875 6.8125 C-4.70167969 6.00941406 -4.71585938 5.20632812 -4.73046875 4.37890625 C-4.37351059 1.08158086 -3.22200121 0.32220012 0 0 Z " fill="#F8F8F9" transform="translate(216.5,11.75)"/>
<path d="M0 0 C1.65 0 3.3 0 5 0 C5 5.94 5 11.88 5 18 C4.01 18 3.02 18 2 18 C1.67 13.71 1.34 9.42 1 5 C-0.32 8.63 -1.64 12.26 -3 16 C-3.33 16 -3.66 16 -4 16 C-4.46450943 9.49686791 -3.32575612 5.5825192 0 0 Z " fill="#7A7B7F" transform="translate(141,9)"/>
<path d="M0 0 C3 1 3 1 4 3 C4.62749437 7.34480277 4.98913068 11.36490643 2.66015625 15.21484375 C1.17993622 16.9179675 -0.32252543 18.49226988 -2 20 C-3.58035774 16.83928451 -3.22575346 13.46725496 -3.25 10 C-3.270625 9.26265625 -3.29125 8.5253125 -3.3125 7.765625 C-3.328125 5.625 -3.328125 5.625 -3 2 C-2.01 1.34 -1.02 0.68 0 0 Z " fill="#143E8B" transform="translate(342,61)"/>
<path d="M0 0 C5 0 5 0 6.8125 1.0625 C8.67036623 4.09375543 8.37133265 6.53422859 8 10 C6.8125 11.9375 6.8125 11.9375 5 13 C3.35 13 1.7 13 0 13 C0 8.71 0 4.42 0 0 Z " fill="#F0F1F1" transform="translate(318,12)"/>
<path d="M0 0 C1.32 0 2.64 0 4 0 C4 4.95 4 9.9 4 15 C5.98 15 7.96 15 10 15 C10 15.99 10 16.98 10 18 C6.7 18 3.4 18 0 18 C0 12.06 0 6.12 0 0 Z " fill="#77787C" transform="translate(197,9)"/>
<path d="M0 0 C2.56295176 2.66974142 2.99337817 3.90232794 3.25 7.6875 C3 11 3 11 2 12 C-0.67058851 12.14115161 -3.32432238 12.04247107 -6 12 C-6.66 9.69 -7.32 7.38 -8 5 C-4.04 2.525 -4.04 2.525 0 0 Z " fill="#5BBA45" transform="translate(44,103)"/>
<path d="M0 0 C2 3 2 3 1.75 5.5625 C1 8 1 8 -1 10 C-3.83386167 10.3633156 -5.40522151 10.3568671 -7.875 8.875 C-9 7 -9 7 -8.8125 3.875 C-8.544375 2.92625 -8.27625 1.9775 -8 1 C-5.21136993 -0.39431504 -3.07921132 -0.25660094 0 0 Z " fill="#1B2B7E" transform="translate(317,42)"/>
<path d="M0 0 C0.79921875 0.00902344 1.5984375 0.01804687 2.421875 0.02734375 C3.02515625 0.03894531 3.6284375 0.05054687 4.25 0.0625 C4.58 0.7225 4.91 1.3825 5.25 2.0625 C4.156875 2.248125 3.06375 2.43375 1.9375 2.625 C-3.19046672 3.85204918 -7.06596605 6.69672716 -11.33203125 9.69921875 C-12.12996094 10.14910156 -12.92789063 10.59898438 -13.75 11.0625 C-14.74 10.7325 -15.73 10.4025 -16.75 10.0625 C-15.75261116 6.47190017 -14.86279244 5.15077235 -11.875 2.8125 C-7.74297157 0.49856408 -4.70122717 -0.06913569 0 0 Z " fill="#48B849" transform="translate(230.75,66.9375)"/>
<path d="M0 0 C2.00720923 0.28674418 4.0085944 0.61866701 6 1 C6.33 2.65 6.66 4.3 7 6 C5.02 6.99 5.02 6.99 3 8 C3 8.66 3 9.32 3 10 C-4.92 10 -12.84 10 -21 10 C-21 9.67 -21 9.34 -21 9 C-10.605 8.505 -10.605 8.505 0 8 C-0.66 7.34 -1.32 6.68 -2 6 C-1.44444444 1.44444444 -1.44444444 1.44444444 0 0 Z " fill="#2A3A87" transform="translate(328,44)"/>
<path d="M0 0 C0.33 0 0.66 0 1 0 C1.02687279 1.81242052 1.04633715 3.62495233 1.0625 5.4375 C1.07410156 6.44683594 1.08570312 7.45617187 1.09765625 8.49609375 C1 11 1 11 0 12 C-1.51928038 12.07179964 -3.04167482 12.08392007 -4.5625 12.0625 C-5.38878906 12.05347656 -6.21507812 12.04445313 -7.06640625 12.03515625 C-7.70449219 12.02355469 -8.34257813 12.01195313 -9 12 C-9 10.02 -9 8.04 -9 6 C-2.25 2 -2.25 2 0 2 C0 1.34 0 0.68 0 0 Z " fill="#76C042" transform="translate(68,103)"/>
<path d="M0 0 C0.33 0 0.66 0 1 0 C1.33 3.3 1.66 6.6 2 10 C2.9075 9.319375 3.815 8.63875 4.75 7.9375 C8 6 8 6 10.375 6.25 C10.91125 6.4975 11.4475 6.745 12 7 C11.67 9.31 11.34 11.62 11 14 C10.34 13.67 9.68 13.34 9 13 C7.27409017 13.80699359 7.27409017 13.80699359 5.5 15 C3.65625 16.1875 3.65625 16.1875 2 17 C1.34 16.67 0.68 16.34 0 16 C0 10.72 0 5.44 0 0 Z " fill="#2DB350" transform="translate(35,84)"/>
<path d="M0 0 C2.97 0 5.94 0 9 0 C9 2.31 9 4.62 9 7 C8.34 6.67 7.68 6.34 7 6 C4.28918883 6.8831638 4.28918883 6.8831638 2 9 C1.17695987 12.40934596 1.17695987 12.40934596 1.1875 16.1875 C1.13980469 17.45980469 1.09210937 18.73210937 1.04296875 20.04296875 C1.02878906 21.01878906 1.01460937 21.99460937 1 23 C0.67 23 0.34 23 0 23 C0 15.41 0 7.82 0 0 Z " fill="#06A843" transform="translate(58,68)"/>
<path d="M0 0 C1.2065625 0.0309375 1.2065625 0.0309375 2.4375 0.0625 C3.0625 2.4375 3.0625 2.4375 3.4375 5.0625 C2.7775 5.7225 2.1175 6.3825 1.4375 7.0625 C1.75791397 9.66530568 1.75791397 9.66530568 2.4375 12.0625 C0.4575 12.0625 -1.5225 12.0625 -3.5625 12.0625 C-3.5625 11.4025 -3.5625 10.7425 -3.5625 10.0625 C-4.2225 10.0625 -4.8825 10.0625 -5.5625 10.0625 C-5.25451674 8.58238629 -4.940982 7.10342675 -4.625 5.625 C-4.45097656 4.80128906 -4.27695312 3.97757813 -4.09765625 3.12890625 C-3.31713345 0.11506273 -3.19062011 0.07782 0 0 Z " fill="#8B8C8F" transform="translate(365.5625,8.9375)"/>
<path d="M0 0 C0.58124171 3.16453821 0.76105816 5.85628264 0 9 C-2.66838759 11.87124747 -5.67395157 13.94761694 -9 16 C-10.31415365 13.3716927 -9.76523496 11.69538 -8.94140625 8.953125 C-7.59953654 6.16916295 -3.4210786 0 0 0 Z " fill="#123A88" transform="translate(472,87)"/>
<path d="M0 0 C1.32 0 2.64 0 4 0 C4 6.27 4 12.54 4 19 C2.68 18.67 1.36 18.34 0 18 C0 12.06 0 6.12 0 0 Z " fill="#86868A" transform="translate(390,9)"/>
<path d="M0 0 C2.5 1 2.5 1 4 3 C4.32603594 5.75500373 4.18314114 8.2070976 4 11 C3.34 11 2.68 11 2 11 C1.01 8.69 0.02 6.38 -1 4 C-3.41645782 3.83312552 -3.41645782 3.83312552 -6 4 C-8.76223278 6.76223278 -8.57856291 9.20706617 -9 13 C-9.33 13 -9.66 13 -10 13 C-10.2493357 11.39884424 -10.47378648 9.79379841 -10.6875 8.1875 C-10.81511719 7.29417969 -10.94273437 6.40085937 -11.07421875 5.48046875 C-11 3 -11 3 -9.765625 1.19921875 C-6.75693846 -0.8442918 -3.45655329 -0.48683849 0 0 Z " fill="#797A7E" transform="translate(220,9)"/>
<path d="M0 0 C1.98 0 3.96 0 6 0 C6.79953138 3.28696233 7.09658936 4.71023192 6 8 C6.33 8.33 6.66 8.66 7 9 C7.04063832 10.66617115 7.042721 12.33388095 7 14 C5 11 5 11 5 9 C2.03 11.475 2.03 11.475 -1 14 C-0.835 13.236875 -0.67 12.47375 -0.5 11.6875 C0.02329615 8.87478318 0.19375333 6.71042889 -0.5625 3.9375 C-1 2 -1 2 0 0 Z " fill="#133A89" transform="translate(320,82)"/>
<path d="M0 0 C1.44750506 4.34251518 1.04148595 8.66848957 0.9609375 13.1953125 C0.92532635 16.41218683 0.97436183 18.92308549 2 22 C-0.31 22.66 -2.62 23.32 -5 24 C-5 24.66 -5 25.32 -5 26 C-6.32 25.67 -7.64 25.34 -9 25 C-9.33 23.35 -9.66 21.7 -10 20 C-9.67 20.66 -9.34 21.32 -9 22 C-6.69 20.68 -4.38 19.36 -2 18 C-2.02320313 17.3709375 -2.04640625 16.741875 -2.0703125 16.09375 C-2.19184081 10.32983602 -1.63773706 5.52736258 0 0 Z " fill="#4CB640" transform="translate(174,82)"/>
<path d="M0 0 C0.12658228 5.56962025 0.12658228 5.56962025 -0.625 8.125 C-1.13258369 10.66291847 -0.21829111 11.77841032 1 14 C1 14.99 1 15.98 1 17 C-0.875 16.8125 -0.875 16.8125 -3 16 C-5.29205544 11.8743002 -5.48423495 8.23958663 -4.5 3.6875 C-4.335 3.130625 -4.17 2.57375 -4 2 C-6.97 1.505 -6.97 1.505 -10 1 C-10 0.67 -10 0.34 -10 0 C-6.30458414 -0.95024979 -3.69541586 -0.95024979 0 0 Z " fill="#7F8084" transform="translate(311,11)"/>
<path d="M0 0 C-0.64453125 0.80695313 -1.2890625 1.61390625 -1.953125 2.4453125 C-4.60797869 6.42759304 -4.66281268 10.19858938 -4.75 14.875 C-4.77964844 15.65875 -4.80929688 16.4425 -4.83984375 17.25 C-4.909946 19.16612807 -4.95730658 21.08306537 -5 23 C-5.33 23 -5.66 23 -6 23 C-6.33 17.39 -6.66 11.78 -7 6 C-10.96 7.98 -10.96 7.98 -15 10 C-13.78919016 5.15676064 -12.734823 4.74939754 -8.625 2.1875 C-7.64789063 1.56230469 -6.67078125 0.93710938 -5.6640625 0.29296875 C-3 -1 -3 -1 0 0 Z " fill="#3BB33E" transform="translate(74,80)"/>
<path d="M0 0 C2.31 0 4.62 0 7 0 C6.01 0.66 5.02 1.32 4 2 C3.41407366 5.11610554 3.41407366 5.11610554 3.3125 8.625 C3.24675781 9.81351563 3.18101562 11.00203125 3.11328125 12.2265625 C3.07589844 13.14179688 3.03851563 14.05703125 3 15 C4.98 14.67 6.96 14.34 9 14 C9 14.99 9 15.98 9 17 C6.03 17 3.06 17 0 17 C0 11.39 0 5.78 0 0 Z " fill="#727378" transform="translate(315,10)"/>
<path d="M0 0 C0.99 0 1.98 0 3 0 C3.05380578 2.79192205 3.09357669 5.5828141 3.125 8.375 C3.15013672 9.56609375 3.15013672 9.56609375 3.17578125 10.78125 C3.19335473 12.85492015 3.10335168 14.92883241 3 17 C2.34 17.66 1.68 18.32 1 19 C-1.625 18.625 -1.625 18.625 -4 18 C-4 17.01 -4 16.02 -4 15 C-2.68 15 -1.36 15 0 15 C0 10.05 0 5.1 0 0 Z " fill="#74757A" transform="translate(400,9)"/>
<path d="M0 0 C1.65 0 3.3 0 5 0 C6.5471219 2.4571936 7.04484402 3.632279 6.6875 6.5625 C6.17232879 8.38901612 5.60013019 10.19960942 5 12 C3.35 12 1.7 12 0 12 C0.33 9.69 0.66 7.38 1 5 C0.34 5 -0.32 5 -1 5 C-0.67 3.35 -0.34 1.7 0 0 Z " fill="#85868A" transform="translate(154,9)"/>
<path d="M0 0 C2 2 2 2 2.22705078 3.87939453 C2.21657715 4.62302246 2.20610352 5.36665039 2.1953125 6.1328125 C2.18886719 6.93847656 2.18242187 7.74414062 2.17578125 8.57421875 C2.15902344 9.41597656 2.14226562 10.25773437 2.125 11.125 C2.11597656 11.97449219 2.10695313 12.82398437 2.09765625 13.69921875 C2.07405647 15.79959884 2.03818483 17.89983444 2 20 C1.34 19.34 0.68 18.68 0 18 C-0.66 18.33 -1.32 18.66 -2 19 C-2 13.06 -2 7.12 -2 1 C-1.34 0.67 -0.68 0.34 0 0 Z " fill="#1A2B7F" transform="translate(307,80)"/>
<path d="M0 0 C2.5 2.25 2.5 2.25 5 5 C5 6.32 5 7.64 5 9 C3.35 9.66 1.7 10.32 0 11 C0 11.66 0 12.32 0 13 C-2.31 12.34 -4.62 11.68 -7 11 C-7 10.34 -7 9.68 -7 9 C-6.34 9 -5.68 9 -5 9 C-5 8.34 -5 7.68 -5 7 C-3.02 6.01 -1.04 5.02 1 4 C0.67 2.68 0.34 1.36 0 0 Z " fill="#3AB548" transform="translate(174,99)"/>
<path d="M0 0 C2.97 0.495 2.97 0.495 6 1 C6 3.97 6 6.94 6 10 C3.958125 9.2884375 3.958125 9.2884375 1.875 8.5625 C-1.735014 7.35345898 -5.21228412 6.4856046 -9 6 C-9 5.67 -9 5.34 -9 5 C-4.545 4.505 -4.545 4.505 0 4 C0 2.68 0 1.36 0 0 Z " fill="#1DB048" transform="translate(237,69)"/>
<path d="M0 0 C0.25523437 0.60328125 0.51046875 1.2065625 0.7734375 1.828125 C2.13278732 4.23512659 3.34434398 5.22956265 5.625 6.75 C6.57246094 7.39195313 6.57246094 7.39195313 7.5390625 8.046875 C8.02117187 8.36140625 8.50328125 8.6759375 9 9 C8.01 10.485 8.01 10.485 7 12 C4.03 11.505 4.03 11.505 1 11 C0.67 11.66 0.34 12.32 0 13 C-1.44977894 10.65887549 -2.04314411 9.4203071 -1.7578125 6.640625 C-1.54898438 5.85171875 -1.34015625 5.0628125 -1.125 4.25 C-0.92132813 3.45078125 -0.71765625 2.6515625 -0.5078125 1.828125 C-0.34023437 1.22484375 -0.17265625 0.6215625 0 0 Z " fill="#F4F4F4" transform="translate(226,13)"/>
<path d="M0 0 C1.18224668 3.54674003 0.89329634 5.97522995 0.5625 9.6875 C0.40974609 11.45673828 0.40974609 11.45673828 0.25390625 13.26171875 C0.12822266 14.61716797 0.12822266 14.61716797 0 16 C-0.33 16 -0.66 16 -1 16 C-1 12.7 -1 9.4 -1 6 C-1.66 5.67 -2.32 5.34 -3 5 C-2.01 3.35 -1.02 1.7 0 0 Z M-13 4 C-12.34 4 -11.68 4 -11 4 C-10.28966569 9.52967941 -9.69732824 14.49983036 -11 20 C-11.66 20 -12.32 20 -13 20 C-13 14.72 -13 9.44 -13 4 Z " fill="#2C559A" transform="translate(474,81)"/>
<path d="M0 0 C1.00023193 0.00523682 2.00046387 0.01047363 3.03100586 0.01586914 C4.1105957 0.0190918 5.19018555 0.02231445 6.30249023 0.02563477 C8.00695312 0.03820313 8.00695312 0.03820313 9.74584961 0.05102539 C11.45611328 0.05779297 11.45611328 0.05779297 13.20092773 0.06469727 C16.02845312 0.07652792 18.85587601 0.09301129 21.68334961 0.11352539 C21.68334961 0.44352539 21.68334961 0.77352539 21.68334961 1.11352539 C20.65854492 1.13930664 19.63374023 1.16508789 18.57788086 1.19165039 C17.21716261 1.24795597 15.85648718 1.30530276 14.49584961 1.36352539 C13.48554688 1.38479492 13.48554688 1.38479492 12.45483398 1.40649414 C7.58957973 1.64382362 5.17421552 2.77443626 1.68334961 6.11352539 C0.35433897 7.11926317 -0.9773884 8.12147947 -2.31665039 9.11352539 C-3.19555664 2.96118164 -3.19555664 2.96118164 -3.31665039 1.11352539 C-2.31665039 0.11352539 -2.31665039 0.11352539 0 0 Z " fill="#5ABE59" transform="translate(117.316650390625,51.886474609375)"/>
<path d="M0 0 C1.74627478 2.61941217 2.38722388 4.03824877 3 7 C3 5.35 3 3.7 3 2 C3.33 2 3.66 2 4 2 C4.20625 3.27875 4.4125 4.5575 4.625 5.875 C5.08483533 8.07813968 5.08483533 8.07813968 6 10 C8.99428144 11.61147442 8.99428144 11.61147442 12 12 C12 12.66 12 13.32 12 14 C7.79034186 14.41271158 5.64412341 14.42484735 2.0625 12.0625 C-0.70477383 7.95351764 -0.47138774 4.80815498 0 0 Z " fill="#848589" transform="translate(105,14)"/>
<path d="M0 0 C0.268125 0.598125 0.53625 1.19625 0.8125 1.8125 C1.99086308 3.98316883 3.23060981 5.30817212 5 7 C4.24203125 7.48919922 4.24203125 7.48919922 3.46875 7.98828125 C2.8190625 8.42527344 2.169375 8.86226562 1.5 9.3125 C0.8503125 9.74175781 0.200625 10.17101562 -0.46875 10.61328125 C-1.22671875 11.29970703 -1.22671875 11.29970703 -2 12 C-2 12.99 -2 13.98 -2 15 C-5.82946843 13.54744301 -7.12050295 11.57104439 -9 8 C-8.34 8 -7.68 8 -7 8 C-6.67 8.66 -6.34 9.32 -6 10 C-5.34 10 -4.68 10 -4 10 C-3.814375 9.071875 -3.814375 9.071875 -3.625 8.125 C-3 6 -3 6 -1 4 C-0.3574765 1.93125966 -0.3574765 1.93125966 0 0 Z " fill="#12AD47" transform="translate(223,78)"/>
<path d="M0 0 C0.99 0.33 1.98 0.66 3 1 C2.67 2.65 2.34 4.3 2 6 C3.65 6 5.3 6 7 6 C7.33 6.66 7.66 7.32 8 8 C5.69 8 3.38 8 1 8 C0.67 9.65 0.34 11.3 0 13 C-0.99 13 -1.98 13 -3 13 C-2.45144652 8.428721 -1.58255197 4.32564205 0 0 Z " fill="#76777B" transform="translate(408,15)"/>
<path d="M0 0 C0.99 0 1.98 0 3 0 C3 5.94 3 11.88 3 18 C2.01 18 1.02 18 0 18 C0 12.06 0 6.12 0 0 Z " fill="#6D6F73" transform="translate(333,9)"/>
<path d="M0 0 C0.86625 0.4125 1.7325 0.825 2.625 1.25 C1.635 1.58 0.645 1.91 -0.375 2.25 C-1.10823796 4.26508358 -1.10823796 4.26508358 -1.375 6.25 C-3.355 6.58 -5.335 6.91 -7.375 7.25 C-8.035 5.93 -8.695 4.61 -9.375 3.25 C-4.20576923 -0.93461538 -4.20576923 -0.93461538 0 0 Z " fill="#17B04B" transform="translate(19.375,103.75)"/>
<path d="M0 0 C-0.54723683 3.37462715 -1.0549 5.08235 -3 8 C-3.33 8.99 -3.66 9.98 -4 11 C-4.99 10.67 -5.98 10.34 -7 10 C-7.33 8.02 -7.66 6.04 -8 4 C-2.25 0 -2.25 0 0 0 Z " fill="#1FB24A" transform="translate(223,78)"/>
<path d="M0 0 C-1.69247841 1.12831894 -3.39438678 2.24359183 -5.125 3.3125 C-7.47192346 5.42473111 -7.66706683 6.92036816 -8 10 C-7.41992188 9.71125 -6.83984375 9.4225 -6.2421875 9.125 C-1.65550815 6.94519199 1.80222849 5.46689523 7 6 C-2.67741935 11.24193548 -2.67741935 11.24193548 -8 10.6875 C-8.66 10.460625 -9.32 10.23375 -10 10 C-10.3125 7.25 -10.3125 7.25 -10 4 C-6.84563621 0.57526217 -4.63891191 -0.53016136 0 0 Z " fill="#10579E" transform="translate(367,70)"/>
<path d="M0 0 C0.99 0 1.98 0 3 0 C3 5.61 3 11.22 3 17 C2.01 17 1.02 17 0 17 C0 11.39 0 5.78 0 0 Z " fill="#75767B" transform="translate(241,10)"/>
<path d="M0 0 C1.65 0.33 3.3 0.66 5 1 C4.34 2.32 3.68 3.64 3 5 C2.34 5 1.68 5 1 5 C0.67 6.65 0.34 8.3 0 10 C-0.99 10.33 -1.98 10.66 -3 11 C-2.25 3.375 -2.25 3.375 0 0 Z " fill="#828387" transform="translate(261,9)"/>
<path d="M0 0 C0.99 0.66 1.98 1.32 3 2 C3.1875 5.125 3.1875 5.125 3 8 C2.34 8 1.68 8 1 8 C0.34 10.64 -0.32 13.28 -1 16 C-1.33 16 -1.66 16 -2 16 C-2.05402274 13.89611431 -2.09280256 11.79183286 -2.125 9.6875 C-2.14820313 8.51574219 -2.17140625 7.34398438 -2.1953125 6.13671875 C-2 3 -2 3 0 0 Z " fill="#003689" transform="translate(307,96)"/>
<path d="M0 0 C0.375 2.25 0.375 2.25 0 5 C-2.8125 7.375 -2.8125 7.375 -6 9 C-6.99 8.67 -7.98 8.34 -9 8 C-8.9375 6.25 -8.9375 6.25 -8 4 C-2.5 0 -2.5 0 0 0 Z " fill="#2BB34A" transform="translate(206,88)"/>
<path d="M0 0 C0.66 0.33 1.32 0.66 2 1 C2 1.99 2 2.98 2 4 C0.39125 3.938125 0.39125 3.938125 -1.25 3.875 C-4.65747485 3.9885825 -6.20739631 4.21273364 -9 6 C-9.33 5.01 -9.66 4.02 -10 3 C-7.29533098 -0.81835627 -4.38726992 -0.31907418 0 0 Z " fill="#7C7D82" transform="translate(386,9)"/>
<path d="M0 0 C0.66 0.33 1.32 0.66 2 1 C2.0625 4.1875 2.0625 4.1875 1 8 C-1.7950426 10.13056077 -4.78900363 11.59235109 -8 13 C-8 11.68 -8 10.36 -8 9 C-6.865625 8.443125 -5.73125 7.88625 -4.5625 7.3125 C-1.44531169 5.5777124 -1.44531169 5.5777124 -0.0625 2.25 C-0.041875 1.5075 -0.02125 0.765 0 0 Z " fill="#3DB549" transform="translate(205,80)"/>
<path d="M0 0 C0.042721 1.66611905 0.04063832 3.33382885 0 5 C-1 6 -1 6 -3.50390625 6.09765625 C-5.01791016 6.08025391 -5.01791016 6.08025391 -6.5625 6.0625 C-7.57441406 6.05347656 -8.58632812 6.04445313 -9.62890625 6.03515625 C-10.41136719 6.02355469 -11.19382813 6.01195313 -12 6 C-12 5.34 -12 4.68 -12 4 C-10.906875 3.71125 -9.81375 3.4225 -8.6875 3.125 C-5.60241045 2.18378624 -3.11362507 0 0 0 Z " fill="#50BB50" transform="translate(159,109)"/>
<path d="M0 0 C-0.33 1.98 -0.66 3.96 -1 6 C-1.33 5.01 -1.66 4.02 -2 3 C-5.96 4.98 -5.96 4.98 -10 7 C-10 5.68 -10 4.36 -10 3 C-3.375 -1.125 -3.375 -1.125 0 0 Z " fill="#12AF4A" transform="translate(47,87)"/>
<path d="M0 0 C0.66 0 1.32 0 2 0 C2.66 2.31 3.32 4.62 4 7 C3.05125 7.103125 2.1025 7.20625 1.125 7.3125 C-2.29107501 7.68539295 -2.29107501 7.68539295 -4 11 C-4.33 8.69 -4.66 6.38 -5 4 C-4.67 4.66 -4.34 5.32 -4 6 C-0.87525373 4.36526484 -0.87525373 4.36526484 -0.3125 1.875 C-0.209375 1.25625 -0.10625 0.6375 0 0 Z " fill="#959699" transform="translate(262,14)"/>
<path d="M0 0 C1.98 0.99 1.98 0.99 4 2 C4.6875 5.9375 4.6875 5.9375 4.82421875 8.02734375 C4.94239909 10.21182596 4.94239909 10.21182596 6 13 C4.02 12.34 2.04 11.68 0 11 C0 7.37 0 3.74 0 0 Z " fill="#898A8E" transform="translate(208,13)"/>
<path d="M0 0 C1.45823212 -0.0270043 2.91660675 -0.04639787 4.375 -0.0625 C5.18710937 -0.07410156 5.99921875 -0.08570313 6.8359375 -0.09765625 C9 0 9 0 11 1 C12.91293847 3.71838625 13.01388867 4.87963154 12.625 8.25 C12.41875 9.1575 12.2125 10.065 12 11 C11.67 11 11.34 11 11 11 C10.6596875 9.576875 10.6596875 9.576875 10.3125 8.125 C9.33389567 4.84460579 9.33389567 4.84460579 6.625 3.8125 C5.75875 3.544375 4.8925 3.27625 4 3 C2.63634717 2.04175747 1.29205831 1.05278825 0 0 Z " fill="#87888C" transform="translate(315,9)"/>
<path d="M0 0 C1.3921875 0.3403125 1.3921875 0.3403125 2.8125 0.6875 C-4.5875 6.6875 -4.5875 6.6875 -8.1875 6.6875 C-4.97117876 -0.48737047 -4.97117876 -0.48737047 0 0 Z " fill="#14AD44" transform="translate(77.1875,68.3125)"/>
<path d="M0 0 C0 1.98 0 3.96 0 6 C-1.32 6 -2.64 6 -4 6 C-4 4.68 -4 3.36 -4 2 C-6.97 1.505 -6.97 1.505 -10 1 C-10 0.67 -10 0.34 -10 0 C-6.30458414 -0.95024979 -3.69541586 -0.95024979 0 0 Z " fill="#77787D" transform="translate(311,11)"/>
<path d="M0 0 C0.99 0 1.98 0 3 0 C3.6875 1.6875 3.6875 1.6875 4 4 C2.75 6.75 2.75 6.75 1 9 C0.01 9 -0.98 9 -2 9 C-1.34 6.03 -0.68 3.06 0 0 Z " fill="#828387" transform="translate(359,19)"/>
<path d="M0 0 C3.625 -0.1875 3.625 -0.1875 7 0 C6.21625 0.515625 5.4325 1.03125 4.625 1.5625 C1.44405752 4.5162323 0.88506307 6.81606548 0 11 C-0.66 10.67 -1.32 10.34 -2 10 C-2.25 3.375 -2.25 3.375 0 0 Z " fill="#75767B" transform="translate(108,10)"/>
<path d="M0 0 C1.670625 0.061875 1.670625 0.061875 3.375 0.125 C2.59125 0.640625 1.8075 1.15625 1 1.6875 C-2.18094248 4.6412323 -2.73993693 6.94106548 -3.625 11.125 C-3.955 11.125 -4.285 11.125 -4.625 11.125 C-4.84674933 9.66864629 -5.05198698 8.20977044 -5.25 6.75 C-5.36601562 5.93789062 -5.48203125 5.12578125 -5.6015625 4.2890625 C-5.60929687 3.57492187 -5.61703125 2.86078125 -5.625 2.125 C-3.625 0.125 -3.625 0.125 0 0 Z " fill="#76777B" transform="translate(285.625,9.875)"/>
<path d="M0 0 C1.32 0 2.64 0 4 0 C2.34832443 3.5786304 0.21713508 6.74820188 -2 10 C-2.66 8.68 -3.32 7.36 -4 6 C-2.25 3 -2.25 3 0 0 Z " fill="#797A7E" transform="translate(250,9)"/>
<path d="M0 0 C0.33 0 0.66 0 1 0 C1 3.3 1 6.6 1 10 C-0.32 10.33 -1.64 10.66 -3 11 C-2.67 8.03 -2.34 5.06 -2 2 C-1.34 2 -0.68 2 0 2 C0 1.34 0 0.68 0 0 Z " fill="#797A7F" transform="translate(193,13)"/>
<path d="M0 0 C1.32 0 2.64 0 4 0 C4 4.95 4 9.9 4 15 C5.98 15 7.96 15 10 15 C10 15.33 10 15.66 10 16 C7.03 16.33 4.06 16.66 1 17 C1.33 16.01 1.66 15.02 2 14 C2.22451458 11.77425665 2.40782878 9.54418481 2.5625 7.3125 C2.64628906 6.13300781 2.73007813 4.95351562 2.81640625 3.73828125 C2.87699219 2.83464844 2.93757812 1.93101563 3 1 C2.01 0.67 1.02 0.34 0 0 Z " fill="#999A9D" transform="translate(197,9)"/>
<path d="M0 0 C0.66 0.33 1.32 0.66 2 1 C2.6328125 3.06640625 2.6328125 3.06640625 3.125 5.5625 C3.29257812 6.38878906 3.46015625 7.21507812 3.6328125 8.06640625 C3.75398438 8.70449219 3.87515625 9.34257812 4 10 C2.68 10 1.36 10 0 10 C-1.125 2.25 -1.125 2.25 0 0 Z " fill="#7B7D81" transform="translate(417,17)"/>
<path d="M0 0 C0.33 1.32 0.66 2.64 1 4 C0.05125 3.95875 -0.8975 3.9175 -1.875 3.875 C-5.10244856 3.65026182 -5.10244856 3.65026182 -7 6 C-7.33 4.35 -7.66 2.7 -8 1 C-5.29120665 -0.35439668 -2.99066732 -0.06501451 0 0 Z " fill="#797A7F" transform="translate(88,9)"/>
<path d="M0 0 C0.99 0.33 1.98 0.66 3 1 C2.34 1 1.68 1 1 1 C1.185625 1.639375 1.37125 2.27875 1.5625 2.9375 C1.706875 3.618125 1.85125 4.29875 2 5 C1 6 1 6 -0.84765625 6.09765625 C-2.8984375 6.06510417 -4.94921875 6.03255208 -7 6 C-6.21625 5.38125 -5.4325 4.7625 -4.625 4.125 C-2.03162353 2.10141339 -2.03162353 2.10141339 0 0 Z " fill="#2FB44B" transform="translate(236,68)"/>
<path d="M0 0 C2.31 0 4.62 0 7 0 C5.515 1.98 5.515 1.98 4 4 C5.32 6.31 6.64 8.62 8 11 C7.34 11 6.68 11 6 11 C4.4921875 9.1015625 4.4921875 9.1015625 2.875 6.625 C2.33617187 5.81289063 1.79734375 5.00078125 1.2421875 4.1640625 C0 2 0 2 0 0 Z " fill="#0868B1" transform="translate(403,48)"/>
<path d="M0 0 C-0.1875 1.8125 -0.1875 1.8125 -1 4 C-5.17857143 7 -5.17857143 7 -8 7 C-7.8125 5.1875 -7.8125 5.1875 -7 3 C-2.82142857 0 -2.82142857 0 0 0 Z " fill="#21B24B" transform="translate(45,90)"/>
<path d="M0 0 C0.33 0.99 0.66 1.98 1 3 C-0.11878383 4.17262904 -1.24523051 5.33795138 -2.375 6.5 C-3.00148438 7.1496875 -3.62796875 7.799375 -4.2734375 8.46875 C-6 10 -6 10 -8 10 C-8 7 -8 7 -6.25 5.17578125 C-5.5075 4.56089844 -4.765 3.94601563 -4 3.3125 C-3.2575 2.68988281 -2.515 2.06726563 -1.75 1.42578125 C-1.1725 0.95527344 -0.595 0.48476562 0 0 Z " fill="#0A408C" transform="translate(451,104)"/>
<path d="M0 0 C0.33 0 0.66 0 1 0 C1 1.65 1 3.3 1 5 C3.31 5 5.62 5 8 5 C8 5.66 8 6.32 8 7 C1.84765625 7.09765625 1.84765625 7.09765625 0 7 C-1 6 -1 6 -1.125 3.5 C-1 1 -1 1 0 0 Z " fill="#67BE4D" transform="translate(38,108)"/>
<path d="M0 0 C0.042721 1.66611905 0.04063832 3.33382885 0 5 C-1 6 -1 6 -4.0625 6.0625 C-5.5165625 6.0315625 -5.5165625 6.0315625 -7 6 C-7 5.01 -7 4.02 -7 3 C-2.77777778 0 -2.77777778 0 0 0 Z " fill="#49BA54" transform="translate(83,73)"/>
<path d="M0 0 C-3.19990508 2.74277578 -6.00499382 4.6302836 -10 6 C-9.6875 4.125 -9.6875 4.125 -9 2 C-5.5647952 -0.29013653 -4.014669 -0.17842973 0 0 Z " fill="#1AB14C" transform="translate(69,76)"/>
<path d="M0 0 C0.33 0 0.66 0 1 0 C1.33 2.31 1.66 4.62 2 7 C0.72125 7.309375 -0.5575 7.61875 -1.875 7.9375 C-4.10101675 8.47605244 -5.94739999 8.9737 -8 10 C-7.67 9.01 -7.34 8.02 -7 7 C-6.01 6.525625 -5.02 6.05125 -4 5.5625 C-0.86110939 4.34204403 -0.86110939 4.34204403 -0.125 1.8125 C-0.08375 1.214375 -0.0425 0.61625 0 0 Z " fill="#23B55D" transform="translate(67,69)"/>
<path d="M0 0 C0.33 0 0.66 0 1 0 C1.1953125 6.0546875 1.1953125 6.0546875 1 8 C0.34 8.66 -0.32 9.32 -1 10 C-3.125 9.625 -3.125 9.625 -5 9 C-4.34 7.02 -3.68 5.04 -3 3 C-2.67 3.99 -2.34 4.98 -2 6 C-1.34 6 -0.68 6 0 6 C0 4.02 0 2.04 0 0 Z " fill="#8B8C8F" transform="translate(224,14)"/>
<path d="M0 0 C0 0.66 0 1.32 0 2 C-1.65 2.66 -3.3 3.32 -5 4 C-5 4.66 -5 5.32 -5 6 C-5.99 5.67 -6.98 5.34 -8 5 C-6.44843568 0.34530705 -4.78780941 0 0 0 Z " fill="#2EB34B" transform="translate(179,106)"/>
<path d="M0 0 C-1.13499394 3.29148243 -1.99283376 3.9959869 -5.125 5.75 C-6.548125 6.36875 -6.548125 6.36875 -8 7 C-7.8125 5.1875 -7.8125 5.1875 -7 3 C-2.82142857 0 -2.82142857 0 0 0 Z " fill="#2FB44B" transform="translate(223,78)"/>
<path d="M0 0 C1.65 0.33 3.3 0.66 5 1 C1.82679218 4.53586014 -0.16743695 6.58578031 -5 7 C-4.0409375 6.1028125 -4.0409375 6.1028125 -3.0625 5.1875 C-0.79689611 3.09189663 -0.79689611 3.09189663 0 0 Z " fill="#0F408C" transform="translate(488,69)"/>
<path d="M0 0 C3.375 -0.125 3.375 -0.125 7 0 C7.66 0.66 8.32 1.32 9 2 C8.34 2.66 7.68 3.32 7 4 C7 3.34 7 2.68 7 2 C4.69 2.33 2.38 2.66 0 3 C0 2.01 0 1.02 0 0 Z " fill="#E4E7F0" transform="translate(326,59)"/>
<path d="M0 0 C2.31 0 4.62 0 7 0 C6.34 1.32 5.68 2.64 5 4 C3.35 3.67 1.7 3.34 0 3 C0 2.01 0 1.02 0 0 Z " fill="#838388" transform="translate(396,24)"/>
<path d="M0 0 C0.33 0 0.66 0 1 0 C1.96891192 5.37305699 1.96891192 5.37305699 2 8 C0.5625 10 0.5625 10 -1 11 C-1.66 10.67 -2.32 10.34 -3 10 C-2.01 6.7 -1.02 3.4 0 0 Z " fill="#747579" transform="translate(119,16)"/>
<path d="M0 0 C1.5 1.25 1.5 1.25 3 3 C3 4.32 3 5.64 3 7 C1.35 7 -0.3 7 -2 7 C-1.34 4.69 -0.68 2.38 0 0 Z " fill="#E4E4E5" transform="translate(412,14)"/>
<path d="M0 0 C2.13671875 0.3984375 2.13671875 0.3984375 4 1 C3.27683594 1.61488281 3.27683594 1.61488281 2.5390625 2.2421875 C1.90742188 2.78101562 1.27578125 3.31984375 0.625 3.875 C-0.00148438 4.40867187 -0.62796875 4.94234375 -1.2734375 5.4921875 C-2.55836651 6.61432007 -3.79371975 7.79371975 -5 9 C-4.64947365 5.84526281 -4.13480924 4.1766466 -2.1875 1.625 C-1.465625 1.08875 -0.74375 0.5525 0 0 Z " fill="#0786CF" transform="translate(408,70)"/>
<path d="M0 0 C1.5625 1.8125 1.5625 1.8125 3 4 C2.67 4.99 2.34 5.98 2 7 C-0.31 7 -2.62 7 -5 7 C-4.0409375 6.1028125 -4.0409375 6.1028125 -3.0625 5.1875 C-0.79689611 3.09189663 -0.79689611 3.09189663 0 0 Z " fill="#9A9A9E" transform="translate(256,21)"/>
<path d="M0 0 C0.33 0 0.66 0 1 0 C1.33 2.31 1.66 4.62 2 7 C0.68 7.33 -0.64 7.66 -2 8 C-2 4.23312136 -1.76462683 3.08809695 0 0 Z " fill="#8C8D90" transform="translate(136,20)"/>
<path d="M0 0 C2.35953094 2.35953094 2.49141413 3.77895617 3 7 C1.35 7 -0.3 7 -2 7 C-1.125 1.125 -1.125 1.125 0 0 Z " fill="#E8E8E9" transform="translate(156,14)"/>
<path d="M0 0 C2.475 0.495 2.475 0.495 5 1 C4.67 2.32 4.34 3.64 4 5 C2.68 5 1.36 5 0 5 C0 3.35 0 1.7 0 0 Z " fill="#EFEFF0" transform="translate(303,12)"/>
<path d="M0 0 C0.99 0 1.98 0 3 0 C2.67 5.61 2.34 11.22 2 17 C1.67 17 1.34 17 1 17 C0.67 11.39 0.34 5.78 0 0 Z " fill="#7C7D81" transform="translate(333,9)"/>
<path d="M0 0 C0.33 0 0.66 0 1 0 C1.33 3.96 1.66 7.92 2 12 C1.34 11.34 0.68 10.68 0 10 C-0.99 10.495 -0.99 10.495 -2 11 C-1.855625 10.29875 -1.71125 9.5975 -1.5625 8.875 C-0.98521625 5.92443859 -0.48304859 2.96729849 0 0 Z " fill="#08247B" transform="translate(307,88)"/>
<path d="M0 0 C0.33 0 0.66 0 1 0 C1.33 3.3 1.66 6.6 2 10 C1.34 10 0.68 10 0 10 C-0.33 11.32 -0.66 12.64 -1 14 C-1.66 13.67 -2.32 13.34 -3 13 C-2.690625 12.34 -2.38125 11.68 -2.0625 11 C-0.75039745 7.29523985 -0.39735865 3.90736009 0 0 Z " fill="#18AC3A" transform="translate(196,88)"/>
<path d="M0 0 C0.33 0 0.66 0 1 0 C0.67 2.31 0.34 4.62 0 7 C0.66 7 1.32 7 2 7 C1.67 7.99 1.34 8.98 1 10 C0.01 10 -0.98 10 -2 10 C-1.54177532 6.53058454 -1.10868317 3.32604951 0 0 Z " fill="#8B8C8F" transform="translate(407,18)"/>
<path d="M0 0 C1.32 0.33 2.64 0.66 4 1 C4.33 2.65 4.66 4.3 5 6 C4.34 6 3.68 6 3 6 C2.67 6.66 2.34 7.32 2 8 C0.74335022 5.09399739 0 3.20395416 0 0 Z " fill="#7D7E82" transform="translate(366,13)"/>
<path d="M0 0 C0.7425 0.185625 1.485 0.37125 2.25 0.5625 C4.94990963 0.99203108 6.44631077 0.85122974 9 0 C8.34 1.32 7.68 2.64 7 4 C4.625 3.6875 4.625 3.6875 2 3 C1.34 2.01 0.68 1.02 0 0 Z " fill="#75767B" transform="translate(228,4)"/>
<path d="M0 0 C1.9375 0.3125 1.9375 0.3125 4 1 C4.33 1.99 4.66 2.98 5 4 C4.01 4.99 3.02 5.98 2 7 C0 5 0 5 -0.125 2.375 C-0.08375 1.59125 -0.0425 0.8075 0 0 Z " fill="#85868A" transform="translate(79,12)"/>
<path d="M0 0 C0 2.31 0 4.62 0 7 C-1.65 6.67 -3.3 6.34 -5 6 C-5 4 -5 4 -3.0625 1.875 C-1 0 -1 0 0 0 Z " fill="#14AC4B" transform="translate(243,72)"/>
<path d="M0 0 C0.99 0.33 1.98 0.66 3 1 C3 2.65 3 4.3 3 6 C2.01 6.33 1.02 6.66 0 7 C-0.38133299 5.0085944 -0.71325582 3.00720923 -1 1 C-0.67 0.67 -0.34 0.34 0 0 Z " fill="#848588" transform="translate(350,20)"/>
<path d="M0 0 C0.66 0 1.32 0 2 0 C2.33 1.98 2.66 3.96 3 6 C1.68 6 0.36 6 -1 6 C-0.67 4.02 -0.34 2.04 0 0 Z " fill="#F0F0F0" transform="translate(364,14)"/>
<path d="M0 0 C0.99 0.33 1.98 0.66 3 1 C0.36 2.98 -2.28 4.96 -5 7 C-4 3 -4 3 -2.125 1.1875 C-1.42375 0.795625 -0.7225 0.40375 0 0 Z " fill="#04A045" transform="translate(14,69)"/>
<path d="M0 0 C1.485 0.99 1.485 0.99 3 2 C3.1875 5.125 3.1875 5.125 3 8 C2.01 8 1.02 8 0 8 C0 5.36 0 2.72 0 0 Z " fill="#15408C" transform="translate(307,96)"/>
<path d="M0 0 C1.32 0.33 2.64 0.66 4 1 C3.34 1.66 2.68 2.32 2 3 C1.54188325 4.97235333 1.54188325 4.97235333 1.375 7.125 C1.25125 8.40375 1.1275 9.6825 1 11 C0.67 11 0.34 11 0 11 C0 7.37 0 3.74 0 0 Z " fill="#0875C0" transform="translate(442,69)"/>
<path d="M0 0 C0.66 0 1.32 0 2 0 C2.33 1.98 2.66 3.96 3 6 C1.68 6 0.36 6 -1 6 C-0.67 4.02 -0.34 2.04 0 0 Z " fill="#F6F6F6" transform="translate(262,14)"/>
</svg>
